<?xml version="1.0" encoding="utf-8"?>
<!-- Generator: Adobe Illustrator 24.0.1, SVG Export Plug-In . SVG Version: 6.00 Build 0)  -->
<svg version="1.1" id="Layer_1" xmlns="http://www.w3.org/2000/svg" xmlns:xlink="http://www.w3.org/1999/xlink" x="0px" y="0px"
	 viewBox="0 0 1000 1000" style="enable-background:new 0 0 1000 1000;" xml:space="preserve">
<style type="text/css">
	.st0{fill:#262626;}
	.st1{fill:url(#SVGID_1_);}
	.st2{fill:url(#SVGID_2_);}
	.st3{fill:url(#SVGID_3_);}
	.st4{fill:url(#SVGID_4_);}
	.st5{fill:url(#SVGID_5_);}
	.st6{fill:url(#SVGID_6_);}
	.st7{fill:url(#SVGID_7_);}
	.st8{fill:url(#SVGID_8_);}
	.st9{fill:url(#SVGID_9_);}
	.st10{fill:url(#SVGID_10_);}
	.st11{fill:url(#SVGID_11_);}
	.st12{fill:url(#SVGID_12_);}
	.st13{fill:url(#SVGID_13_);}
	.st14{fill:url(#SVGID_14_);}
	.st15{fill:url(#SVGID_15_);}
	.st16{fill:url(#SVGID_16_);}
	.st17{fill:url(#SVGID_17_);}
	.st18{fill:url(#SVGID_18_);}
	.st19{fill:url(#SVGID_19_);}
	.st20{fill:url(#SVGID_20_);}
	.st21{fill:url(#SVGID_21_);}
	.st22{fill:url(#SVGID_22_);}
	.st23{fill:url(#SVGID_23_);}
	.st24{fill:url(#SVGID_24_);}
	.st25{fill:url(#SVGID_25_);}
	.st26{fill:url(#SVGID_26_);}
	.st27{fill:url(#SVGID_27_);}
	.st28{fill:url(#SVGID_28_);}
	.st29{fill:url(#SVGID_29_);}
	.st30{fill:url(#SVGID_30_);}
	.st31{fill:url(#SVGID_31_);}
	.st32{fill:url(#SVGID_32_);}
	.st33{fill:url(#SVGID_33_);}
	.st34{fill:url(#SVGID_34_);}
	.st35{fill:url(#SVGID_35_);}
	.st36{fill:url(#SVGID_36_);}
	.st37{fill:url(#SVGID_37_);}
	.st38{fill:url(#SVGID_38_);}
	.st39{fill:url(#SVGID_39_);}
	.st40{fill:url(#SVGID_40_);}
	.st41{fill:url(#SVGID_41_);}
	.st42{fill:url(#SVGID_42_);}
	.st43{fill:url(#SVGID_43_);}
	.st44{fill:url(#SVGID_44_);}
	.st45{fill:url(#SVGID_45_);}
	.st46{fill:url(#SVGID_46_);}
	.st47{fill:url(#SVGID_47_);}
	.st48{fill:url(#SVGID_48_);}
	.st49{fill:url(#SVGID_49_);}
	.st50{fill:url(#SVGID_50_);}
	.st51{fill:url(#SVGID_51_);}
	.st52{fill:url(#SVGID_52_);}
	.st53{fill:url(#SVGID_53_);}
	.st54{fill:url(#SVGID_54_);}
	.st55{fill:url(#SVGID_55_);}
	.st56{fill:url(#SVGID_56_);}
	.st57{fill:url(#SVGID_57_);}
	.st58{fill:url(#SVGID_58_);}
	.st59{fill:url(#SVGID_59_);}
	.st60{fill:url(#SVGID_60_);}
	.st61{fill:url(#SVGID_61_);}
	.st62{fill:url(#SVGID_62_);}
	.st63{fill:url(#SVGID_63_);}
	.st64{fill:url(#SVGID_64_);}
	.st65{fill:url(#SVGID_65_);}
	.st66{fill:url(#SVGID_66_);}
	.st67{fill:url(#SVGID_67_);}
	.st68{fill:url(#SVGID_68_);}
	.st69{fill:url(#SVGID_69_);}
	.st70{fill:url(#SVGID_70_);}
	.st71{fill:url(#SVGID_71_);}
	.st72{fill:url(#SVGID_72_);}
	.st73{fill:url(#SVGID_73_);}
	.st74{fill:none;stroke:#29ABE2;stroke-width:2;stroke-miterlimit:10;}
</style>
<g>
	<g>
		<path class="st0" d="M263.66,718.51h-20.28l-1.42-12.1c-6.76,10.5-17.61,14.05-28.28,14.05c-25.79,0-45.18-17.08-45.18-45.89
			c0-30.24,19.03-45.89,44.65-45.89c9.25,0,23.66,4.98,28.82,14.05v-48.56h21.7V718.51z M190.19,674.57
			c0,15.3,11.03,25.79,24.9,25.79c13.7,0,25.44-9.96,25.44-25.79c0-15.3-11.74-25.61-25.44-25.61
			C201.22,648.95,190.19,658.74,190.19,674.57z"/>
		<path class="st0" d="M329.11,701.07c8,0,18.5-3.02,23.48-8.18l13.87,13.7c-9.25,9.61-24.37,14.23-37.71,14.23
			c-30.24,0-48.2-18.68-48.2-46.78c0-26.68,18.14-45.89,46.6-45.89c29.35,0,47.67,18.14,44.29,54.25h-68.48
			C304.38,693.25,313.81,701.07,329.11,701.07z M327.86,647.35c-11.74,0-21.35,5.69-24.55,17.08h47.32
			C349.21,653.05,340.32,647.35,327.86,647.35z"/>
		<path class="st0" d="M423.74,646.29c-10.32,0-16.01,3.2-16.01,8.72c0,5.69,5.16,8.89,16.36,9.6c16.54,1.07,37.53,4.8,37.53,28.11
			c0,15.48-12.63,28.82-37.71,28.82c-13.87,0-27.75-2.31-40.56-15.65l10.67-15.48c6.23,6.94,20.46,12.1,30.24,12.27
			c8.18,0.18,15.83-4.09,15.83-10.5c0-6.05-4.98-8.54-17.43-9.25c-16.54-1.25-36.29-7.29-36.29-27.22c0-20.28,20.99-27.39,37-27.39
			c13.7,0,24.01,2.67,34.15,11.56l-12.1,14.23C439.21,648.24,432.1,646.29,423.74,646.29z"/>
		<path class="st0" d="M496.66,666.03l29.53-35.22h25.97v1.24l-35.75,40.02l40.73,44.83v1.6H531l-34.33-39.67v39.67h-21.7V594.17
			h21.7V666.03z"/>
		<path class="st0" d="M597.7,630.99h24.19v18.68h-24.37v37.89c0,8.36,4.63,12.45,11.38,12.45c3.38,0,7.29-1.07,10.5-2.67l6.05,18.5
			c-6.23,2.49-11.38,3.56-17.97,3.74c-19.03,0.71-31.48-10.14-31.48-32.02v-37.89h-16.36v-18.68H576V608.4l21.7-2.31V630.99z"/>
		<path class="st0" d="M725.23,674.75c0,25.26-17.25,45.72-45.71,45.72c-28.46,0-45.54-20.46-45.54-45.72
			c0-25.08,17.43-45.72,45.36-45.72C707.27,629.03,725.23,649.67,725.23,674.75z M655.68,674.75c0,13.34,8,25.79,23.84,25.79
			c15.83,0,23.84-12.45,23.84-25.79c0-13.16-9.25-25.97-23.84-25.97C663.86,648.78,655.68,661.58,655.68,674.75z"/>
		<path class="st0" d="M740.17,630.81h20.28l1.42,12.1c6.76-9.78,18.5-14.05,28.46-14.05c27.04,0,45,20.1,45,45.89
			c0,25.61-16.19,45.89-44.29,45.89c-9.25,0-22.95-2.85-29.17-12.45v46.96h-21.7V630.81z M813.63,674.75c0-13.7-9.25-24.9-24.9-24.9
			c-15.65,0-24.9,11.21-24.9,24.9s10.14,24.9,24.9,24.9C803.49,699.65,813.63,688.44,813.63,674.75z"/>
	</g>
</g>
<g>
	<path class="st0" d="M187.59,782.18l15.21-18.14h13.38v0.64l-18.41,20.61l20.98,23.09v0.82h-13.47l-17.68-20.43v20.43h-11.18
		v-64.04h11.18V782.18z"/>
	<path class="st0" d="M235.32,787.68c0,6.87,3.76,12.09,10.9,12.09c6.87,0,11.54-5.77,11.54-12.64v-23.09h11.09v45.26h-9.99
		l-0.73-6.14c-4.67,4.58-8.98,6.78-15.3,6.78c-10.81,0-18.69-8.15-18.69-22.17v-23.73h11.18V787.68z"/>
	<path class="st0" d="M289.92,770.18c2.66-4.67,10.08-7.24,14.84-7.24c13.19,0,23,8.06,23,23.64c0,14.84-9.99,23.64-23.27,23.64
		c-5.5,0-11.09-1.83-14.57-7.24l-0.73,6.23h-10.44v-64.04h11.18V770.18z M290.65,786.58c0,8.15,6.05,13.28,13.1,13.28
		c7.15,0,12.83-5.41,12.83-13.28c0-8.15-5.68-13.19-12.83-13.19C296.7,773.39,290.65,778.7,290.65,786.58z"/>
	<path class="st0" d="M359,800.23c4.12,0,9.53-1.56,12.09-4.21l7.15,7.05c-4.76,4.95-12.55,7.33-19.42,7.33
		c-15.58,0-24.83-9.62-24.83-24.1c0-13.74,9.35-23.64,24-23.64c15.12,0,24.55,9.35,22.81,27.94h-35.27
		C346.26,796.2,351.12,800.23,359,800.23z M358.36,772.56c-6.05,0-10.99,2.93-12.64,8.79h24.37
		C369.35,775.5,364.77,772.56,358.36,772.56z"/>
	<path class="st0" d="M400.59,769.27c3.48-5.59,8.15-6.41,12.73-6.41c4.67,0,9.16,1.83,11.64,4.31l-5.04,9.71
		c-2.29-1.92-4.4-2.93-8.06-2.93c-5.86,0-11.27,3.12-11.27,11.45v23.82h-11.18v-45.17h10.35L400.59,769.27z"/>
	<path class="st0" d="M462.43,785.57c0-6.87-3.76-12.09-10.9-12.09c-6.87,0-11.54,5.77-11.54,12.64v23.09H428.9v-45.26h9.99
		l0.73,6.14c4.58-4.49,9.16-6.78,14.84-6.78c10.63,0,19.15,7.97,19.15,22.17v23.73h-11.18V785.57z"/>
	<path class="st0" d="M506.22,800.23c4.12,0,9.53-1.56,12.09-4.21l7.15,7.05c-4.76,4.95-12.55,7.33-19.42,7.33
		c-15.58,0-24.83-9.62-24.83-24.1c0-13.74,9.35-23.64,24-23.64c15.12,0,24.55,9.35,22.81,27.94h-35.27
		C493.48,796.2,498.34,800.23,506.22,800.23z M505.58,772.56c-6.05,0-10.99,2.93-12.64,8.79h24.37
		C516.57,775.5,511.99,772.56,505.58,772.56z"/>
	<path class="st0" d="M550.47,764.13h12.46v9.62h-12.55v19.52c0,4.31,2.38,6.41,5.86,6.41c1.74,0,3.76-0.55,5.41-1.37l3.12,9.53
		c-3.21,1.28-5.86,1.83-9.25,1.92c-9.8,0.37-16.22-5.22-16.22-16.49v-19.52h-8.43v-9.62h8.43V752.5l11.18-1.19V764.13z"/>
	<path class="st0" d="M594.26,800.23c4.12,0,9.53-1.56,12.09-4.21l7.15,7.05c-4.76,4.95-12.55,7.33-19.42,7.33
		c-15.58,0-24.83-9.62-24.83-24.1c0-13.74,9.34-23.64,24-23.64c15.12,0,24.55,9.35,22.81,27.94h-35.27
		C581.52,796.2,586.38,800.23,594.26,800.23z M593.62,772.56c-6.05,0-10.99,2.93-12.64,8.79h24.37
		C604.61,775.5,600.03,772.56,593.62,772.56z"/>
	<path class="st0" d="M643,772.01c-5.31,0-8.25,1.65-8.25,4.49c0,2.93,2.66,4.58,8.43,4.95c8.52,0.55,19.33,2.47,19.33,14.48
		c0,7.97-6.5,14.84-19.42,14.84c-7.15,0-14.29-1.19-20.89-8.06l5.5-7.97c3.21,3.57,10.54,6.23,15.57,6.32
		c4.21,0.09,8.15-2.11,8.15-5.41c0-3.12-2.56-4.4-8.98-4.76c-8.52-0.64-18.69-3.76-18.69-14.02c0-10.44,10.81-14.11,19.06-14.11
		c7.05,0,12.37,1.37,17.59,5.96l-6.23,7.33C650.97,773.02,647.3,772.01,643,772.01z"/>
</g>
<path class="st0" d="M715.04,349.19c0-3.59,0-3.59-3.58-3.59c-66.84,0-133.68,0-200.52,0c-66.27,0-132.55,0-198.82,0
	c-1.56,0-3.11-0.06-4.67-0.01c-0.92,0.03-1.48,0.37-1.47,1.56c0.07,6.67,0.05,13.34,0.01,20c-0.01,1.14,0.4,1.49,1.48,1.46
	c2.41-0.05,4.82-0.01,7.24-0.01c3.5,0,3.5,0,3.5,3.45c0,67.83,0,135.67,0,203.5c0,0.71,0.02,1.42,0,2.13
	c-0.03,1.16,0.43,1.52,1.65,1.5c5.18-0.07,10.36-0.09,15.53,0.05c2.03,0.05,2.76-0.57,2.73-2.65c-0.12-6.67-0.1-13.34-0.1-20.01
	c0.02-61.94,0.05-123.89,0.02-185.83c0-1.83,0.56-2.18,2.27-2.18c19.57,0.01,39.15-0.11,58.72-0.1c29.52,0.01,59.03,0.09,88.55,0.14
	c3.33,0.01,6.66,0.06,9.99-0.04c1.52-0.05,2.08,0.3,2.07,1.97c-0.05,7.23,0.1,14.47,0.1,21.7c-0.01,11.99-0.11,23.98-0.13,35.97
	c-0.02,14.47,0.08,28.94-0.02,43.41c-0.1,14.61,0.29,29.22,0.07,43.83c-0.18,12.48,0.07,24.97,0.08,37.46
	c0,7.79-0.1,15.59-0.13,23.38c-0.02,3.58-0.12,2.91,2.98,2.91c59.96,0.01,119.92,0.01,179.87,0.01c2.99,0,2.99,0,2.99-2.97
	c0-68.33,0.01-136.66-0.05-204.99c0-2.23,0.63-2.72,2.74-2.69c8.29,0.12,16.59,0.02,24.89,0.07c1.5,0.01,2.1-0.27,2.06-1.98
	C714.96,360.82,715.04,355,715.04,349.19z M645.41,546.55c-17.59,0.02-35.18,0.01-52.77,0.01c-17.45,0-34.89,0-52.34,0
	c-6.58,0-8.9-2.36-8.91-8.99c-0.02-10.5-0.06-20.99-0.06-31.49c0-5.65,0.04-11.3,0.07-16.95c0.02-4.8,2.6-7.71,7.34-7.81
	c6.73-0.15,13.48-0.08,20.21-0.01c2.31,0.02,4.2,1.09,5.65,2.94c3.33,4.23,6.77,8.38,10.01,12.68c2.3,3.04,5.17,4.24,8.97,4.15
	c7.44-0.19,14.89-0.12,22.34-0.03c3.18,0.04,5.53-1.13,7.46-3.65c3.36-4.39,6.91-8.63,10.31-12.99c1.71-2.19,3.88-3.16,6.62-3.14
	c5.11,0.04,10.21-0.01,15.32,0.02c5.48,0.03,8.09,2.64,8.09,8.08c0.01,16.31,0,32.62,0,48.94
	C653.72,544.09,651.28,546.55,645.41,546.55z M653.72,444.53c0,5.1-2.66,7.73-7.72,7.73c-17.81,0-35.61,0-53.42,0
	c-17.81,0-35.61,0-53.42,0c-5,0-7.76-2.74-7.77-7.75c-0.03-14.03-0.05-28.07-0.07-42.1c0-2.73-0.01-5.46,0.08-8.19
	c0.13-4.35,2.95-7.13,7.3-7.16c6.6-0.05,13.2,0.02,19.79-0.03c2.63-0.02,4.6,1.05,6.2,3.09c3.45,4.41,7,8.74,10.44,13.16
	c1.83,2.36,4.08,3.49,7.12,3.45c7.94-0.1,15.89-0.09,23.84,0c3.11,0.04,5.43-1.14,7.3-3.57c3.29-4.26,6.69-8.44,10-12.7
	c1.77-2.28,3.99-3.47,6.93-3.44c5.11,0.06,10.22-0.01,15.32,0.02c5.52,0.04,8.07,2.58,8.08,8.1
	C653.73,411.61,653.73,428.07,653.72,444.53z"/>
<path class="st0" d="M606.39,425.4c-4.6,0.1-9.21,0.03-13.81,0.03c-4.74,0-9.49,0.04-14.23-0.02c-1.66-0.02-2.29,0.67-2.22,2.3
	c0.08,1.83,0.07,3.68-0.01,5.51c-0.07,1.56,0.45,2.44,2.13,2.44c9.56-0.01,19.11-0.02,28.67,0.01c1.58,0.01,2.15-0.72,2.12-2.2
	c-0.04-1.84-0.08-3.69,0.01-5.52C609.15,425.98,608.3,425.36,606.39,425.4z"/>
<path class="st0" d="M604.76,522.86c-0.35,0.02-0.71,0.01-1.06,0.01c-8.43-0.02-16.87-0.02-25.3-0.09c-1.75-0.01-2.41,0.66-2.29,2.4
	c0.12,1.69,0.12,3.4,0.01,5.08c-0.11,1.75,0.36,2.62,2.34,2.57c4.68-0.1,9.36-0.03,14.03-0.03c4.47,0,8.93,0,13.4,0
	c3.11,0,3.1,0,3.01-3.21c-0.02-0.78,0.02-1.56,0.08-2.33C609.31,522.83,609.11,522.62,604.76,522.86z"/>
<g>
	<g>
		<linearGradient id="SVGID_1_" gradientUnits="userSpaceOnUse" x1="655.0022" y1="244.4154" x2="655.0181" y2="244.4154">
			<stop  offset="0" style="stop-color:#29ABE2"/>
			<stop  offset="1" style="stop-color:#0071BC"/>
		</linearGradient>
		<path class="st1" d="M655,244.42l0.02-0.02C655.01,244.41,655.01,244.42,655,244.42z"/>
		<linearGradient id="SVGID_2_" gradientUnits="userSpaceOnUse" x1="654.9546" y1="244.4521" x2="654.9968" y2="244.4521">
			<stop  offset="0" style="stop-color:#29ABE2"/>
			<stop  offset="1" style="stop-color:#0071BC"/>
		</linearGradient>
		<path class="st2" d="M654.95,244.47l0.04-0.04C654.98,244.45,654.96,244.47,654.95,244.47z"/>
		<linearGradient id="SVGID_3_" gradientUnits="userSpaceOnUse" x1="418.6907" y1="340.2688" x2="419.5178" y2="340.2688">
			<stop  offset="0" style="stop-color:#29ABE2"/>
			<stop  offset="1" style="stop-color:#0071BC"/>
		</linearGradient>
		<path class="st3" d="M419.52,340.33c-0.27-0.12-0.55-0.12-0.83-0.11c0.09,0,0.18,0.01,0.27,0.01
			C419.15,340.24,419.33,340.29,419.52,340.33z"/>
		<linearGradient id="SVGID_4_" gradientUnits="userSpaceOnUse" x1="647.2129" y1="314.3564" x2="647.2131" y2="314.3564">
			<stop  offset="0" style="stop-color:#29ABE2"/>
			<stop  offset="1" style="stop-color:#0071BC"/>
		</linearGradient>
		<path class="st4" d="M647.21,314.36C647.21,314.36,647.21,314.35,647.21,314.36C647.21,314.36,647.21,314.36,647.21,314.36z"/>
		<linearGradient id="SVGID_5_" gradientUnits="userSpaceOnUse" x1="471.2172" y1="330.9142" x2="471.2177" y2="330.9142">
			<stop  offset="0" style="stop-color:#29ABE2"/>
			<stop  offset="1" style="stop-color:#0071BC"/>
		</linearGradient>
		<path class="st5" d="M471.22,330.92c0,0,0-0.01,0-0.01C471.22,330.92,471.22,330.92,471.22,330.92z"/>
		<linearGradient id="SVGID_6_" gradientUnits="userSpaceOnUse" x1="419.5178" y1="340.325" x2="419.5179" y2="340.325">
			<stop  offset="0" style="stop-color:#29ABE2"/>
			<stop  offset="1" style="stop-color:#0071BC"/>
		</linearGradient>
		<polygon class="st6" points="419.52,340.33 419.52,340.33 419.52,340.33 		"/>
		<linearGradient id="SVGID_7_" gradientUnits="userSpaceOnUse" x1="417.7331" y1="340.637" x2="419.5178" y2="340.637">
			<stop  offset="0" style="stop-color:#29ABE2"/>
			<stop  offset="1" style="stop-color:#0071BC"/>
		</linearGradient>
		<path class="st7" d="M418.43,340.35c0.36-0.02,0.73-0.02,1.09-0.02c0,0,0,0,0,0c-0.18-0.03-0.37-0.09-0.55-0.09
			c-0.09,0-0.18-0.01-0.27-0.01c-0.13,0.01-0.25,0.02-0.37,0.02c-0.76,0.04-0.71,0.38-0.24,0.81
			C417.9,340.4,417.9,340.37,418.43,340.35z"/>
		<linearGradient id="SVGID_8_" gradientUnits="userSpaceOnUse" x1="368.4126" y1="274.4696" x2="368.7331" y2="274.4696">
			<stop  offset="0" style="stop-color:#29ABE2"/>
			<stop  offset="1" style="stop-color:#0071BC"/>
		</linearGradient>
		<path class="st8" d="M368.41,274.2c0.09,0.18,0.18,0.37,0.26,0.55C368.85,274.44,368.59,274.34,368.41,274.2z"/>
		<linearGradient id="SVGID_9_" gradientUnits="userSpaceOnUse" x1="654.433" y1="244.2602" x2="655.0255" y2="244.2602">
			<stop  offset="0" style="stop-color:#29ABE2"/>
			<stop  offset="1" style="stop-color:#0071BC"/>
		</linearGradient>
		<path class="st9" d="M654.52,244.2c0.14,0.11,0.23,0.28,0.43,0.28l0.01-0.01c0.01-0.01,0.03-0.03,0.04-0.04l0.01-0.01
			c0.01-0.01,0.01-0.01,0.02-0.02l0.01-0.01c0,0,0,0,0,0c-0.03-0.21-0.24-0.24-0.37-0.35c-0.04-0.03-0.13-0.01-0.19,0.02
			C654.4,244.1,654.44,244.14,654.52,244.2z"/>
		<linearGradient id="SVGID_10_" gradientUnits="userSpaceOnUse" x1="655.0181" y1="244.4041" x2="655.0234" y2="244.4041">
			<stop  offset="0" style="stop-color:#29ABE2"/>
			<stop  offset="1" style="stop-color:#0071BC"/>
		</linearGradient>
		<path class="st10" d="M655.02,244.4L655.02,244.4C655.02,244.4,655.02,244.4,655.02,244.4z"/>
		<linearGradient id="SVGID_11_" gradientUnits="userSpaceOnUse" x1="654.9968" y1="244.4267" x2="655.0022" y2="244.4267">
			<stop  offset="0" style="stop-color:#29ABE2"/>
			<stop  offset="1" style="stop-color:#0071BC"/>
		</linearGradient>
		<path class="st11" d="M655,244.43C655,244.43,655,244.43,655,244.43L655,244.43z"/>
		<linearGradient id="SVGID_12_" gradientUnits="userSpaceOnUse" x1="654.9488" y1="244.4777" x2="654.9546" y2="244.4777">
			<stop  offset="0" style="stop-color:#29ABE2"/>
			<stop  offset="1" style="stop-color:#0071BC"/>
		</linearGradient>
		<path class="st12" d="M654.95,244.48C654.95,244.48,654.95,244.48,654.95,244.48L654.95,244.48z"/>
		<linearGradient id="SVGID_13_" gradientUnits="userSpaceOnUse" x1="439.7608" y1="344.8635" x2="444.0618" y2="344.8635">
			<stop  offset="0" style="stop-color:#29ABE2"/>
			<stop  offset="1" style="stop-color:#0071BC"/>
		</linearGradient>
		<path class="st13" d="M440.84,346.4c0.22,0.05,0.45,0.07,0.64,0.09c0.89-0.07,1.68-0.27,2.24-0.98c0.71-0.9,0.26-2.05-0.85-2.23
			c-0.45-0.07-0.91-0.07-1.35,0.04c-0.61,0.14-1.13,0.43-1.48,0.96C439.45,345.14,439.84,346.16,440.84,346.4z"/>
		<linearGradient id="SVGID_14_" gradientUnits="userSpaceOnUse" x1="648.7096" y1="322.8922" x2="653.4089" y2="322.8922">
			<stop  offset="0" style="stop-color:#29ABE2"/>
			<stop  offset="1" style="stop-color:#0071BC"/>
		</linearGradient>
		<path class="st14" d="M651.78,320.32c-0.39-0.02-0.77,0.03-1.11,0.22c-1.22,0.68-1.9,1.71-1.96,3c0.03,1.42,1.15,2.24,2.35,1.85
			c1.3-0.42,2.45-2.12,2.34-3.47C653.33,320.96,652.72,320.37,651.78,320.32z M650.9,324.45c-0.78,0.29-1.51-0.3-1.33-1.11
			c0.21-0.93,0.73-1.65,1.63-2.04c0.72-0.31,1.28,0.07,1.29,0.87C652.49,323.1,651.78,324.13,650.9,324.45z"/>
		<linearGradient id="SVGID_15_" gradientUnits="userSpaceOnUse" x1="639.1093" y1="316.39" x2="644.069" y2="316.39">
			<stop  offset="0" style="stop-color:#29ABE2"/>
			<stop  offset="1" style="stop-color:#0071BC"/>
		</linearGradient>
		<path class="st15" d="M641.19,318.73c1.15-0.22,2.01-0.84,2.59-1.85c0.2-0.34,0.28-0.7,0.28-1.09c0.02-1.1-0.64-1.77-1.76-1.76
			c-1.24,0-2.66,1.01-3.07,2.19c-0.16,0.48-0.17,0.97-0.05,1.46c0.12,0.47,0.41,0.8,0.88,0.96
			C640.44,318.74,640.81,318.8,641.19,318.73z M640.05,317.06c-0.01-1.21,1.37-2.36,2.55-2.12c0.45,0.09,0.73,0.57,0.63,1.04
			c-0.22,0.98-1.51,1.98-2.52,1.96C640.29,317.94,640.05,317.62,640.05,317.06z"/>
		<linearGradient id="SVGID_16_" gradientUnits="userSpaceOnUse" x1="650.3289" y1="306.2419" x2="654.452" y2="306.2419">
			<stop  offset="0" style="stop-color:#29ABE2"/>
			<stop  offset="1" style="stop-color:#0071BC"/>
		</linearGradient>
		<path class="st16" d="M652.21,308.44c1.78-0.25,2.68-2.13,2.03-3.73c-0.19-0.46-0.58-0.69-1.08-0.69
			c-0.74,0.07-1.41,0.29-1.97,0.8c-0.63,0.57-0.93,1.27-0.85,2.13C650.45,308,651.17,308.59,652.21,308.44z M651.27,306.55
			c0-0.97,0.57-1.59,1.52-1.65c0.48-0.03,0.81,0.23,0.87,0.7c0.12,0.96-0.52,1.83-1.46,2c-0.56,0.1-0.86-0.13-0.92-0.71
			C651.26,306.78,651.27,306.66,651.27,306.55z"/>
		<linearGradient id="SVGID_17_" gradientUnits="userSpaceOnUse" x1="658.4639" y1="312.3704" x2="662.7523" y2="312.3704">
			<stop  offset="0" style="stop-color:#29ABE2"/>
			<stop  offset="1" style="stop-color:#0071BC"/>
		</linearGradient>
		<path class="st17" d="M660.78,310.2c-1.14,0.23-1.91,0.92-2.23,2.05c-0.21,0.72-0.05,1.38,0.5,1.88c0.56,0.52,1.25,0.54,1.93,0.3
			c0.96-0.34,1.77-1.56,1.77-2.6C662.74,310.71,661.9,309.98,660.78,310.2z M660.2,313.62c-0.39,0.01-0.65-0.16-0.76-0.54
			c-0.05-0.18-0.09-0.38-0.05-0.55c0.19-0.74,0.65-1.27,1.39-1.5c0.6-0.18,1.05,0.17,1.06,0.8
			C661.86,312.83,661.14,313.6,660.2,313.62z"/>
		<linearGradient id="SVGID_18_" gradientUnits="userSpaceOnUse" x1="367.6547" y1="294.2373" x2="371.585" y2="294.2373">
			<stop  offset="0" style="stop-color:#29ABE2"/>
			<stop  offset="1" style="stop-color:#0071BC"/>
		</linearGradient>
		<path class="st18" d="M371.58,295.12c-0.11-1.33-0.77-2.36-1.95-3.02c-0.29-0.16-0.63-0.25-0.99-0.16
			c-0.68,0.17-0.99,0.6-0.99,1.45c0,1.22,0.91,2.6,2.03,3.06C370.72,296.87,371.67,296.24,371.58,295.12z M370.08,295.54
			c-0.39-0.08-0.69-0.29-0.93-0.59c-0.35-0.42-0.52-0.91-0.63-1.43c-0.08-0.39,0.32-0.74,0.7-0.64c0.33,0.09,0.62,0.27,0.84,0.54
			c0.4,0.48,0.57,1.05,0.61,1.51C370.67,295.44,370.44,295.61,370.08,295.54z"/>
		<linearGradient id="SVGID_19_" gradientUnits="userSpaceOnUse" x1="453.7973" y1="340.5169" x2="457.8896" y2="340.5169">
			<stop  offset="0" style="stop-color:#29ABE2"/>
			<stop  offset="1" style="stop-color:#0071BC"/>
		</linearGradient>
		<path class="st19" d="M456.91,338.74c-1.24-0.36-2.92,0.74-3.1,2.02c-0.11,0.82,0.37,1.52,1.09,1.6c1.04,0.11,2.38-0.65,2.82-1.61
			c0.11-0.25,0.18-0.5,0.16-0.75C457.87,339.34,457.53,338.92,456.91,338.74z M456.99,340.19c-0.16,0.71-0.8,1.22-1.56,1.25
			c-0.49,0.02-0.77-0.35-0.61-0.82c0.24-0.74,1.01-1.18,1.8-1.03C456.87,339.65,457.05,339.92,456.99,340.19z"/>
		<linearGradient id="SVGID_20_" gradientUnits="userSpaceOnUse" x1="375.029" y1="304.2808" x2="378.9468" y2="304.2808">
			<stop  offset="0" style="stop-color:#29ABE2"/>
			<stop  offset="1" style="stop-color:#0071BC"/>
		</linearGradient>
		<path class="st20" d="M378.94,305.12c-0.08-1.3-0.72-2.33-1.87-2.95c-1.02-0.56-2.08,0.06-2.04,1.24
			c-0.02,1.18,0.87,2.58,1.92,3.03C378.07,306.92,379.02,306.32,378.94,305.12z M377.57,305.76c-0.98-0.26-1.64-1.17-1.61-2.27
			c0.01-0.07,0.02-0.18,0.04-0.29c0.05-0.23,0.28-0.36,0.52-0.29c0.49,0.15,0.89,0.44,1.15,0.89c0.29,0.5,0.48,1.04,0.4,1.63
			C378.03,305.68,377.81,305.83,377.57,305.76z"/>
		<linearGradient id="SVGID_21_" gradientUnits="userSpaceOnUse" x1="393.2301" y1="308.711" x2="397.7887" y2="308.711">
			<stop  offset="0" style="stop-color:#29ABE2"/>
			<stop  offset="1" style="stop-color:#0071BC"/>
		</linearGradient>
		<path class="st21" d="M393.23,308.04c0.01,0.31,0.08,0.61,0.25,0.86c0.67,1.06,1.63,1.65,2.42,1.7c1.87,0.06,2.12-0.81,1.75-1.85
			c-0.37-1.04-1.86-2.18-3.43-1.9C393.57,306.97,393.22,307.39,393.23,308.04z M394.57,307.59c0.92-0.03,2.08,0.77,2.38,1.64
			c0.1,0.3-0.11,0.62-0.44,0.64c-0.94,0.06-2.08-0.73-2.35-1.63C394.05,307.91,394.24,307.6,394.57,307.59z"/>
		<linearGradient id="SVGID_22_" gradientUnits="userSpaceOnUse" x1="369.6827" y1="279.7054" x2="373.1221" y2="279.7054">
			<stop  offset="0" style="stop-color:#29ABE2"/>
			<stop  offset="1" style="stop-color:#0071BC"/>
		</linearGradient>
		<path class="st22" d="M371.03,277.19c-0.33-0.02-0.63,0.14-0.86,0.41c-0.25,0.3-0.41,0.64-0.46,1.02c-0.15,1.2,0.2,2.25,0.97,3.16
			c0.41,0.48,0.98,0.55,1.55,0.26c0.4-0.2,0.63-0.54,0.75-0.96c0.37-1.33-0.03-2.46-0.9-3.46
			C371.82,277.33,371.46,277.2,371.03,277.19z M372.11,280.96c-0.06,0.2-0.24,0.28-0.46,0.24c-0.5-0.1-0.81-0.43-0.91-0.91
			c-0.08-0.37-0.09-0.75-0.11-0.99c0-0.22,0-0.3,0-0.38c0.01-0.26-0.02-0.54,0.26-0.71c0.22-0.13,0.67,0.01,0.88,0.34
			C372.24,279.31,372.37,280.12,372.11,280.96z"/>
		<linearGradient id="SVGID_23_" gradientUnits="userSpaceOnUse" x1="375.2501" y1="290.1246" x2="379.0807" y2="290.1246">
			<stop  offset="0" style="stop-color:#29ABE2"/>
			<stop  offset="1" style="stop-color:#0071BC"/>
		</linearGradient>
		<path class="st23" d="M375.26,289.25c0.01,1.11,0.87,2.5,1.81,3c0.75,0.4,1.89,0.18,2-1.07c0.11-1.22-0.74-2.74-1.95-3.22
			C376.16,287.58,375.16,287.88,375.26,289.25z M376.65,288.73c0.86,0.3,1.5,1.19,1.5,2.15c-0.02,0.09-0.03,0.25-0.09,0.39
			c-0.08,0.2-0.22,0.3-0.45,0.23c-0.33-0.1-0.64-0.24-0.88-0.5c-0.46-0.49-0.68-1.09-0.74-1.75
			C375.96,288.84,376.28,288.6,376.65,288.73z"/>
		<linearGradient id="SVGID_24_" gradientUnits="userSpaceOnUse" x1="465.7194" y1="332.9053" x2="469.4268" y2="332.9053">
			<stop  offset="0" style="stop-color:#29ABE2"/>
			<stop  offset="1" style="stop-color:#0071BC"/>
		</linearGradient>
		<path class="st24" d="M468.17,330.9c-0.11,0-0.23,0-0.34,0.02c-1.16,0.16-2.29,1.71-2.09,2.86c0.13,0.73,0.59,1.1,1.34,1.12
			c0.62,0.02,1.11-0.24,1.51-0.67c0.51-0.54,0.78-1.2,0.82-1.92C469.52,331.36,468.93,330.92,468.17,330.9z M468.65,332.34
			c-0.05,0.77-0.68,1.54-1.41,1.73c-0.25,0.07-0.55-0.12-0.6-0.37c-0.16-0.86,0.68-1.89,1.53-1.88
			C468.44,331.83,468.67,332.08,468.65,332.34z"/>
		<linearGradient id="SVGID_25_" gradientUnits="userSpaceOnUse" x1="658.9601" y1="293.9189" x2="662.7509" y2="293.9189">
			<stop  offset="0" style="stop-color:#29ABE2"/>
			<stop  offset="1" style="stop-color:#0071BC"/>
		</linearGradient>
		<path class="st25" d="M660.47,296.16c0.05-0.01,0.2-0.03,0.34-0.08c1.05-0.36,2.05-1.98,1.93-3.1c-0.11-0.98-1.09-1.57-2.01-1.2
			c-1.17,0.46-2.03,2.19-1.69,3.39C659.23,295.85,659.68,296.19,660.47,296.16z M661.14,292.6c0.3-0.09,0.61,0.12,0.67,0.43
			c0.12,0.72-0.32,1.69-0.94,2.04c-0.26,0.15-0.54,0.3-0.84,0.1c-0.25-0.17-0.26-0.44-0.28-0.71
			C659.75,293.63,660.36,292.82,661.14,292.6z"/>
		<linearGradient id="SVGID_26_" gradientUnits="userSpaceOnUse" x1="667.0506" y1="299.9383" x2="670.7632" y2="299.9383">
			<stop  offset="0" style="stop-color:#29ABE2"/>
			<stop  offset="1" style="stop-color:#0071BC"/>
		</linearGradient>
		<path class="st26" d="M669.23,297.8c-0.28-0.01-0.57,0.1-0.84,0.24c-1.05,0.55-1.61,2.03-1.22,3.15c0.26,0.75,0.99,1.08,1.75,0.78
			c0.82-0.32,1.36-0.94,1.69-1.75c0.2-0.48,0.19-0.96,0.01-1.44C670.4,298.13,669.93,297.79,669.23,297.8z M668.56,301.15
			c-0.29,0.06-0.63-0.15-0.71-0.44c-0.2-0.71,0.27-1.68,0.97-1.99c0.61-0.28,1.05,0.01,1.07,0.69
			C669.92,300.28,669.36,301,668.56,301.15z"/>
		<linearGradient id="SVGID_27_" gradientUnits="userSpaceOnUse" x1="362.2627" y1="283.0717" x2="365.5752" y2="283.0717">
			<stop  offset="0" style="stop-color:#29ABE2"/>
			<stop  offset="1" style="stop-color:#0071BC"/>
		</linearGradient>
		<path class="st27" d="M365.44,284.41c0.38-1.33-0.06-2.39-0.97-3.31c-0.59-0.6-1.52-0.43-1.92,0.31c-0.22,0.41-0.3,0.86-0.28,1.32
			c0,0.11-0.01,0.23,0,0.34c0.1,0.78,0.4,1.46,1.01,1.98C363.92,285.6,365.11,285.59,365.44,284.41z M363.69,284.31
			c-0.13-0.13-0.25-0.29-0.32-0.45c-0.23-0.57-0.25-1.18-0.15-1.78c0.05-0.28,0.32-0.41,0.61-0.33c0.35,0.11,0.59,0.34,0.7,0.68
			c0.12,0.36,0.2,0.73,0.19,1.11c-0.01,0.15,0,0.31-0.03,0.45c-0.05,0.22-0.11,0.45-0.37,0.51
			C364.07,284.56,363.85,284.47,363.69,284.31z"/>
		<linearGradient id="SVGID_28_" gradientUnits="userSpaceOnUse" x1="384.4561" y1="312.626" x2="388.7526" y2="312.626">
			<stop  offset="0" style="stop-color:#29ABE2"/>
			<stop  offset="1" style="stop-color:#0071BC"/>
		</linearGradient>
		<path class="st28" d="M388.32,312.14c-0.51-0.65-1.18-1.06-1.98-1.25c-0.34-0.08-0.68-0.07-1.01,0.02c-0.65,0.17-1,0.73-0.83,1.39
			c0.05,0.22,0.14,0.44,0.26,0.62c0.61,0.91,1.49,1.37,2.54,1.49c1.21,0.03,1.78-0.83,1.26-1.88
			C388.49,312.4,388.42,312.26,388.32,312.14z M387.8,313.42c-0.12,0.16-0.31,0.19-0.42,0.18c-0.97-0.09-1.7-0.66-1.96-1.45
			c-0.07-0.21,0.12-0.49,0.34-0.48c0.88,0.06,1.6,0.42,2.05,1.21C387.91,313.05,387.92,313.26,387.8,313.42z"/>
		<linearGradient id="SVGID_29_" gradientUnits="userSpaceOnUse" x1="399.0388" y1="343.8662" x2="402.9787" y2="343.8662">
			<stop  offset="0" style="stop-color:#29ABE2"/>
			<stop  offset="1" style="stop-color:#0071BC"/>
		</linearGradient>
		<path class="st29" d="M401.99,342.47c-0.75-0.22-1.5-0.14-2.2,0.21c-0.56,0.28-0.81,0.84-0.74,1.53c0.06,0.62,0.49,0.92,1.01,1.08
			c0.25,0.08,0.52,0.07,0.59,0.08c0.74,0.01,1.25-0.11,1.7-0.41c0.53-0.36,0.69-0.89,0.6-1.49
			C402.88,342.92,402.49,342.62,401.99,342.47z M401.61,344.34c-0.35,0.2-0.73,0.17-1.1,0.12c-0.24-0.03-0.41-0.18-0.46-0.43
			c-0.05-0.24,0.12-0.56,0.37-0.63c0.25-0.07,0.51-0.1,0.64-0.12c0.22,0.01,0.29,0.01,0.37,0.02c0.35,0.03,0.6,0.2,0.6,0.4
			C402.01,343.99,401.85,344.2,401.61,344.34z"/>
		<linearGradient id="SVGID_30_" gradientUnits="userSpaceOnUse" x1="413.0493" y1="344.9907" x2="416.9702" y2="344.9907">
			<stop  offset="0" style="stop-color:#29ABE2"/>
			<stop  offset="1" style="stop-color:#0071BC"/>
		</linearGradient>
		<path class="st30" d="M415.89,343.61c-0.26-0.06-0.53-0.05-0.79-0.07c-0.43,0-0.84,0.07-1.22,0.26c-0.6,0.3-0.92,0.93-0.82,1.61
			c0.08,0.54,0.39,0.81,1.11,0.97c0.11,0.02,0.22,0.06,0.33,0.07c0.62,0.05,1.22-0.06,1.76-0.36c0.56-0.31,0.78-0.88,0.67-1.57
			C416.84,343.93,416.4,343.72,415.89,343.61z"/>
		<linearGradient id="SVGID_31_" gradientUnits="userSpaceOnUse" x1="426.7678" y1="345.9412" x2="430.6946" y2="345.9412">
			<stop  offset="0" style="stop-color:#29ABE2"/>
			<stop  offset="1" style="stop-color:#0071BC"/>
		</linearGradient>
		<path class="st31" d="M430.13,344.73c-0.94-0.41-1.87-0.34-2.74,0.17c-0.55,0.33-0.68,0.9-0.6,1.5c0.08,0.59,0.52,0.81,1.03,0.93
			c0.22,0.05,0.45,0.06,0.68,0.08c0.39,0.01,0.76-0.07,1.13-0.19c0.77-0.26,1.14-0.87,1.06-1.68
			C430.65,345.17,430.46,344.88,430.13,344.73z"/>
		<linearGradient id="SVGID_32_" gradientUnits="userSpaceOnUse" x1="367.5091" y1="269.1934" x2="370.3764" y2="269.1934">
			<stop  offset="0" style="stop-color:#29ABE2"/>
			<stop  offset="1" style="stop-color:#0071BC"/>
		</linearGradient>
		<path class="st32" d="M368.28,271.03c0.8,0.56,1.71,0.24,1.96-0.68c0.22-0.83,0.17-1.65-0.14-2.45c-0.23-0.6-0.6-0.83-1.23-0.82
			c-0.55,0.01-0.92,0.26-1.12,0.8c-0.29,0.77-0.33,1.55-0.06,2.34C367.8,270.56,367.99,270.83,368.28,271.03z M368.45,268.8
			c0.01-0.14,0.06-0.3,0.13-0.43c0.1-0.18,0.28-0.27,0.47-0.26c0.22,0.01,0.33,0.18,0.34,0.39c0.02,0.26,0,0.53,0,0.8
			c0.01,0,0.02,0,0.02,0c-0.01,0.19-0.01,0.38-0.04,0.57c-0.03,0.21-0.16,0.35-0.37,0.36c-0.21,0.01-0.35-0.12-0.44-0.3
			C368.39,269.56,368.44,269.18,368.45,268.8z"/>
		<linearGradient id="SVGID_33_" gradientUnits="userSpaceOnUse" x1="361.0721" y1="273.044" x2="363.945" y2="273.044">
			<stop  offset="0" style="stop-color:#29ABE2"/>
			<stop  offset="1" style="stop-color:#0071BC"/>
		</linearGradient>
		<path class="st33" d="M361.53,274.69c0.51,0.69,1.57,0.65,2.04-0.06c0.31-0.46,0.33-1,0.38-1.54c-0.07-0.51-0.07-1.05-0.34-1.53
			c-0.27-0.49-0.7-0.68-1.23-0.66c-0.55,0.02-0.92,0.3-1.1,0.83c-0.24,0.74-0.26,1.49-0.09,2.25
			C361.25,274.23,361.37,274.48,361.53,274.69z M362.1,272.18c0.07-0.13,0.17-0.25,0.35-0.26c0.16-0.01,0.33,0.04,0.4,0.18
			c0.34,0.6,0.36,1.23,0.17,1.88c-0.09,0.31-0.51,0.39-0.75,0.15c-0.1-0.1-0.21-0.24-0.24-0.37c-0.05-0.22-0.05-0.45-0.06-0.58
			C361.99,272.77,361.94,272.45,362.1,272.18z"/>
		<linearGradient id="SVGID_34_" gradientUnits="userSpaceOnUse" x1="366.8399" y1="258.9655" x2="369.6221" y2="258.9655">
			<stop  offset="0" style="stop-color:#29ABE2"/>
			<stop  offset="1" style="stop-color:#0071BC"/>
		</linearGradient>
		<path class="st34" d="M368.06,256.86c-0.55,0.03-0.89,0.36-1.06,0.88c-0.14,0.41-0.16,0.82-0.14,1.34
			c-0.04,0.36,0.01,0.81,0.18,1.24c0.21,0.53,0.66,0.71,1.17,0.75c0.5,0.03,0.89-0.19,1.1-0.65c0.44-0.96,0.43-1.91-0.04-2.85
			C369.02,257.08,368.59,256.83,368.06,256.86z M368.31,260.23c-0.85-0.85-0.95-1.39-0.45-2.22c0.07-0.12,0.17-0.26,0.35-0.23
			c0.16,0.03,0.25,0.15,0.33,0.28C368.95,258.8,368.85,259.49,368.31,260.23z"/>
		<linearGradient id="SVGID_35_" gradientUnits="userSpaceOnUse" x1="360.3425" y1="262.8831" x2="363.1418" y2="262.8831">
			<stop  offset="0" style="stop-color:#29ABE2"/>
			<stop  offset="1" style="stop-color:#0071BC"/>
		</linearGradient>
		<path class="st35" d="M361.76,265.01c0.55,0.01,0.93-0.26,1.16-0.76c0.18-0.39,0.25-0.79,0.21-1.22c0-0.23,0.03-0.46-0.01-0.68
			c-0.05-0.3-0.13-0.6-0.26-0.87c-0.25-0.51-0.88-0.8-1.44-0.71c-0.56,0.09-0.86,0.47-0.96,0.99c-0.17,0.83-0.2,1.66,0.15,2.46
			C360.83,264.73,361.22,264.99,361.76,265.01z M361.27,262.09c0.09-0.19,0.25-0.27,0.46-0.26c0.21,0.01,0.37,0.14,0.42,0.32
			c0.07,0.25,0.08,0.52,0.11,0.73c-0.03,0.28-0.04,0.51-0.09,0.73c-0.03,0.15-0.15,0.27-0.3,0.31c-0.2,0.04-0.42-0.01-0.5-0.18
			C361.14,263.21,361.02,262.65,361.27,262.09z"/>
		<linearGradient id="SVGID_36_" gradientUnits="userSpaceOnUse" x1="670.2124" y1="287.6821" x2="673.7125" y2="287.6821">
			<stop  offset="0" style="stop-color:#29ABE2"/>
			<stop  offset="1" style="stop-color:#0071BC"/>
		</linearGradient>
		<path class="st36" d="M672.52,285.4c-0.72-0.17-1.28,0.07-1.74,0.77c-0.53,0.8-0.66,1.68-0.49,2.62c0.11,0.58,0.44,0.97,0.99,1.14
			c0.59,0.18,1.12,0.06,1.57-0.4c0.62-0.64,0.84-1.43,0.87-2.3c-0.02-0.14-0.02-0.29-0.05-0.44
			C673.54,286.12,673.26,285.57,672.52,285.4z M672.53,288.54c-0.05,0.13-0.17,0.25-0.28,0.36c-0.23,0.22-0.63,0.3-0.84,0.17
			c-0.25-0.14-0.36-0.38-0.39-0.66c-0.01-0.11,0-0.23,0-0.47c0.06-0.25,0.13-0.63,0.24-0.99c0.1-0.3,0.33-0.5,0.64-0.61
			c0.37-0.13,0.68,0.03,0.79,0.41C672.89,287.37,672.75,287.96,672.53,288.54z"/>
		<linearGradient id="SVGID_37_" gradientUnits="userSpaceOnUse" x1="665.243" y1="269.3542" x2="668.6873" y2="269.3542">
			<stop  offset="0" style="stop-color:#29ABE2"/>
			<stop  offset="1" style="stop-color:#0071BC"/>
		</linearGradient>
		<path class="st37" d="M665.46,270.57c0.29,0.8,0.74,1.12,1.53,1.1c0.77-0.02,1.28-0.4,1.53-1.14c0.28-0.83,0.18-1.66-0.06-2.48
			c-0.21-0.72-0.69-1.03-1.46-1.03c-0.8,0-1.22,0.27-1.51,0.97c-0.16,0.39-0.22,0.81-0.24,1.33c0.01,0.13,0.01,0.36,0.05,0.58
			C665.33,270.13,665.38,270.36,665.46,270.57z M666.28,268.46c0.08-0.32,0.35-0.49,0.69-0.48c0.36,0,0.61,0.15,0.7,0.48
			c0.17,0.67,0.19,1.36-0.08,2.02c-0.11,0.28-0.45,0.45-0.75,0.41c-0.29-0.04-0.51-0.21-0.57-0.49c-0.07-0.33-0.08-0.68-0.12-1.04
			C666.19,269.06,666.2,268.76,666.28,268.46z"/>
		<linearGradient id="SVGID_38_" gradientUnits="userSpaceOnUse" x1="671.2363" y1="277.1064" x2="674.8842" y2="277.1064">
			<stop  offset="0" style="stop-color:#29ABE2"/>
			<stop  offset="1" style="stop-color:#0071BC"/>
		</linearGradient>
		<path class="st38" d="M672.99,274.72c-0.64,0.07-1.17,0.36-1.42,1c-0.25,0.65-0.39,1.32-0.32,2.01c0.04,0.43,0.2,0.81,0.47,1.15
			c0.59,0.73,1.51,0.83,2.22,0.22c0.64-0.56,0.93-1.28,0.95-2.12c0.01-0.55-0.13-1.07-0.44-1.51
			C674.09,274.97,673.62,274.65,672.99,274.72z M673.72,278.18c-0.19,0.48-0.91,0.55-1.23,0.15c-0.38-0.48-0.47-1.53-0.17-2.06
			c0.16-0.28,0.41-0.45,0.74-0.44c0.34,0,0.58,0.17,0.71,0.48c0.1,0.24,0.15,0.5,0.19,0.62
			C673.97,277.46,673.86,277.83,673.72,278.18z"/>
		<linearGradient id="SVGID_39_" gradientUnits="userSpaceOnUse" x1="664.0289" y1="281.0256" x2="667.4925" y2="281.0256">
			<stop  offset="0" style="stop-color:#29ABE2"/>
			<stop  offset="1" style="stop-color:#0071BC"/>
		</linearGradient>
		<path class="st39" d="M666.82,282.95c0.81-0.87,0.91-2.79,0.2-3.74c-0.53-0.7-1.31-0.81-1.99-0.26c-0.66,0.54-0.95,1.26-1,2.15
			c0.07,0.44,0.05,0.94,0.25,1.4C664.75,283.55,666.04,283.78,666.82,282.95z M665.02,280.46c0.05-0.18,0.11-0.37,0.21-0.52
			c0.18-0.27,0.47-0.37,0.79-0.33c0.3,0.04,0.45,0.26,0.53,0.52c0.06,0.22,0.08,0.44,0.13,0.69c-0.08,0.36-0.14,0.73-0.25,1.09
			c-0.13,0.42-0.44,0.6-0.88,0.53c-0.31-0.05-0.49-0.24-0.54-0.63C664.96,281.36,664.9,280.91,665.02,280.46z"/>
		<linearGradient id="SVGID_40_" gradientUnits="userSpaceOnUse" x1="665.6747" y1="258.7124" x2="668.1015" y2="258.7124">
			<stop  offset="0" style="stop-color:#29ABE2"/>
			<stop  offset="1" style="stop-color:#0071BC"/>
		</linearGradient>
		<path class="st40" d="M667.37,260.3c0.34,0.02,0.58-0.15,0.66-0.49c0.04-0.18,0.05-0.37,0.07-0.47c0.01-0.56-0.07-1-0.31-1.41
			c-0.26-0.46-0.67-0.71-1.18-0.8c-0.45-0.08-0.85,0.18-0.91,0.64c-0.1,0.75,0.06,1.43,0.57,2.01
			C666.56,260.12,666.94,260.28,667.37,260.3z"/>
		<linearGradient id="SVGID_41_" gradientUnits="userSpaceOnUse" x1="386.1878" y1="344.6721" x2="389.4949" y2="344.6721">
			<stop  offset="0" style="stop-color:#29ABE2"/>
			<stop  offset="1" style="stop-color:#0071BC"/>
		</linearGradient>
		<path class="st41" d="M388.52,343.54c-0.41-0.03-0.83,0-1.24,0.04c-0.3,0.03-0.57,0.19-0.78,0.43c-0.33,0.38-0.38,0.82-0.23,1.27
			c0.14,0.42,0.51,0.53,0.91,0.54c0.08,0,0.15,0,0.46,0c0.07-0.01,0.37-0.03,0.67-0.1c0.22-0.05,0.44-0.14,0.63-0.25
			c0.44-0.27,0.65-0.77,0.54-1.27C389.39,343.84,389.05,343.57,388.52,343.54z M388.53,344.53c-0.24,0.46-0.74,0.67-1.25,0.53
			c-0.09-0.03-0.21-0.13-0.23-0.22c-0.02-0.08,0.03-0.22,0.09-0.3c0.23-0.31,0.57-0.34,1.02-0.31c0.03,0,0.14,0.02,0.25,0.04
			C388.55,344.31,388.57,344.45,388.53,344.53z"/>
		<linearGradient id="SVGID_42_" gradientUnits="userSpaceOnUse" x1="649.5383" y1="322.862" x2="652.4838" y2="322.862">
			<stop  offset="0" style="stop-color:#29ABE2"/>
			<stop  offset="1" style="stop-color:#0071BC"/>
		</linearGradient>
		<path class="st42" d="M651.19,321.3c-0.9,0.39-1.42,1.11-1.63,2.04c-0.18,0.81,0.55,1.4,1.33,1.11c0.88-0.33,1.6-1.36,1.59-2.28
			C652.47,321.38,651.92,320.99,651.19,321.3z"/>
		<linearGradient id="SVGID_43_" gradientUnits="userSpaceOnUse" x1="640.0458" y1="316.43" x2="643.2505" y2="316.43">
			<stop  offset="0" style="stop-color:#29ABE2"/>
			<stop  offset="1" style="stop-color:#0071BC"/>
		</linearGradient>
		<path class="st43" d="M643.23,315.99c0.11-0.48-0.18-0.95-0.63-1.04c-1.19-0.24-2.57,0.91-2.55,2.12
			c0.01,0.55,0.25,0.87,0.66,0.88C641.72,317.97,643.01,316.96,643.23,315.99z"/>
		<linearGradient id="SVGID_44_" gradientUnits="userSpaceOnUse" x1="651.2668" y1="306.2622" x2="653.6696" y2="306.2622">
			<stop  offset="0" style="stop-color:#29ABE2"/>
			<stop  offset="1" style="stop-color:#0071BC"/>
		</linearGradient>
		<path class="st44" d="M652.19,307.61c0.94-0.17,1.58-1.05,1.46-2c-0.06-0.47-0.39-0.74-0.87-0.7c-0.94,0.07-1.51,0.68-1.52,1.65
			c0,0.11-0.01,0.23,0,0.34C651.33,307.47,651.63,307.71,652.19,307.61z"/>
		<linearGradient id="SVGID_45_" gradientUnits="userSpaceOnUse" x1="659.3724" y1="312.303" x2="661.8422" y2="312.303">
			<stop  offset="0" style="stop-color:#29ABE2"/>
			<stop  offset="1" style="stop-color:#0071BC"/>
		</linearGradient>
		<path class="st45" d="M660.78,311.03c-0.74,0.23-1.2,0.76-1.39,1.5c-0.04,0.17,0,0.38,0.05,0.55c0.11,0.38,0.37,0.55,0.76,0.54
			c0.95-0.02,1.66-0.8,1.65-1.79C661.83,311.2,661.39,310.85,660.78,311.03z"/>
		<linearGradient id="SVGID_46_" gradientUnits="userSpaceOnUse" x1="368.5081" y1="294.2098" x2="370.6746" y2="294.2098">
			<stop  offset="0" style="stop-color:#29ABE2"/>
			<stop  offset="1" style="stop-color:#0071BC"/>
		</linearGradient>
		<path class="st46" d="M370.67,294.93c-0.04-0.47-0.21-1.03-0.61-1.51c-0.22-0.27-0.51-0.45-0.84-0.54
			c-0.38-0.1-0.78,0.26-0.7,0.64c0.1,0.52,0.28,1.02,0.63,1.43c0.25,0.3,0.54,0.51,0.93,0.59
			C370.44,295.61,370.67,295.44,370.67,294.93z"/>
		<linearGradient id="SVGID_47_" gradientUnits="userSpaceOnUse" x1="454.7668" y1="340.5048" x2="456.9982" y2="340.5048">
			<stop  offset="0" style="stop-color:#29ABE2"/>
			<stop  offset="1" style="stop-color:#0071BC"/>
		</linearGradient>
		<path class="st47" d="M456.61,339.59c-0.79-0.15-1.55,0.29-1.8,1.03c-0.15,0.47,0.12,0.84,0.61,0.82c0.76-0.03,1.4-0.54,1.56-1.25
			C457.05,339.92,456.87,339.65,456.61,339.59z"/>
		<linearGradient id="SVGID_48_" gradientUnits="userSpaceOnUse" x1="375.954" y1="304.3378" x2="378.0749" y2="304.3378">
			<stop  offset="0" style="stop-color:#29ABE2"/>
			<stop  offset="1" style="stop-color:#0071BC"/>
		</linearGradient>
		<path class="st48" d="M378.06,305.43c0.07-0.59-0.11-1.13-0.4-1.63c-0.26-0.45-0.65-0.73-1.15-0.89
			c-0.23-0.07-0.47,0.05-0.52,0.29c-0.02,0.11-0.03,0.23-0.04,0.29c-0.03,1.09,0.64,2.01,1.61,2.27
			C377.81,305.83,378.03,305.68,378.06,305.43z"/>
		<linearGradient id="SVGID_49_" gradientUnits="userSpaceOnUse" x1="394.1241" y1="308.7337" x2="396.9708" y2="308.7337">
			<stop  offset="0" style="stop-color:#29ABE2"/>
			<stop  offset="1" style="stop-color:#0071BC"/>
		</linearGradient>
		<path class="st49" d="M394.15,308.24c0.27,0.9,1.41,1.69,2.35,1.63c0.33-0.02,0.54-0.33,0.44-0.64c-0.3-0.87-1.46-1.67-2.38-1.64
			C394.24,307.6,394.05,307.91,394.15,308.24z"/>
		<linearGradient id="SVGID_50_" gradientUnits="userSpaceOnUse" x1="370.629" y1="279.6908" x2="372.2436" y2="279.6908">
			<stop  offset="0" style="stop-color:#29ABE2"/>
			<stop  offset="1" style="stop-color:#0071BC"/>
		</linearGradient>
		<path class="st50" d="M370.89,278.22c-0.28,0.16-0.25,0.44-0.26,0.71c0,0.08,0,0.15,0,0.38c0.02,0.23,0.03,0.62,0.11,0.99
			c0.1,0.48,0.4,0.81,0.91,0.91c0.22,0.04,0.4-0.04,0.46-0.24c0.27-0.85,0.14-1.66-0.33-2.4
			C371.57,278.23,371.12,278.09,370.89,278.22z"/>
		<linearGradient id="SVGID_51_" gradientUnits="userSpaceOnUse" x1="375.9962" y1="290.1044" x2="378.153" y2="290.1044">
			<stop  offset="0" style="stop-color:#29ABE2"/>
			<stop  offset="1" style="stop-color:#0071BC"/>
		</linearGradient>
		<path class="st51" d="M376,289.25c0.06,0.66,0.27,1.26,0.74,1.75c0.24,0.26,0.55,0.4,0.88,0.5c0.22,0.07,0.37-0.04,0.45-0.23
			c0.05-0.14,0.07-0.3,0.09-0.39c0-0.95-0.64-1.85-1.5-2.15C376.28,288.6,375.96,288.84,376,289.25z"/>
		<linearGradient id="SVGID_52_" gradientUnits="userSpaceOnUse" x1="466.6211" y1="332.9562" x2="468.6559" y2="332.9562">
			<stop  offset="0" style="stop-color:#29ABE2"/>
			<stop  offset="1" style="stop-color:#0071BC"/>
		</linearGradient>
		<path class="st52" d="M468.17,331.83c-0.85-0.01-1.7,1.02-1.53,1.88c0.05,0.25,0.34,0.43,0.6,0.37c0.73-0.19,1.36-0.96,1.41-1.73
			C468.67,332.08,468.44,331.83,468.17,331.83z"/>
		<linearGradient id="SVGID_53_" gradientUnits="userSpaceOnUse" x1="659.7493" y1="293.9215" x2="661.8276" y2="293.9215">
			<stop  offset="0" style="stop-color:#29ABE2"/>
			<stop  offset="1" style="stop-color:#0071BC"/>
		</linearGradient>
		<path class="st53" d="M660.03,295.17c0.3,0.2,0.58,0.05,0.84-0.1c0.62-0.35,1.06-1.31,0.94-2.04c-0.05-0.32-0.36-0.52-0.67-0.43
			c-0.79,0.23-1.39,1.03-1.39,1.86C659.77,294.72,659.78,295,660.03,295.17z"/>
		<linearGradient id="SVGID_54_" gradientUnits="userSpaceOnUse" x1="667.8096" y1="299.8918" x2="669.8965" y2="299.8918">
			<stop  offset="0" style="stop-color:#29ABE2"/>
			<stop  offset="1" style="stop-color:#0071BC"/>
		</linearGradient>
		<path class="st54" d="M668.83,298.72c-0.7,0.32-1.17,1.28-0.97,1.99c0.08,0.29,0.41,0.49,0.71,0.44c0.8-0.15,1.36-0.88,1.33-1.74
			C669.88,298.73,669.44,298.45,668.83,298.72z"/>
		<linearGradient id="SVGID_55_" gradientUnits="userSpaceOnUse" x1="363.1574" y1="283.1202" x2="364.7177" y2="283.1202">
			<stop  offset="0" style="stop-color:#29ABE2"/>
			<stop  offset="1" style="stop-color:#0071BC"/>
		</linearGradient>
		<path class="st55" d="M364.68,283.99c0.03-0.14,0.02-0.3,0.03-0.45c0.01-0.38-0.07-0.75-0.19-1.11c-0.12-0.34-0.35-0.57-0.7-0.68
			c-0.28-0.09-0.56,0.04-0.61,0.33c-0.11,0.61-0.09,1.21,0.15,1.78c0.07,0.17,0.19,0.33,0.32,0.45c0.17,0.16,0.38,0.25,0.62,0.19
			C364.57,284.44,364.63,284.21,364.68,283.99z"/>
		<linearGradient id="SVGID_56_" gradientUnits="userSpaceOnUse" x1="385.4101" y1="312.6378" x2="387.8883" y2="312.6378">
			<stop  offset="0" style="stop-color:#29ABE2"/>
			<stop  offset="1" style="stop-color:#0071BC"/>
		</linearGradient>
		<path class="st56" d="M385.77,311.67c-0.22-0.01-0.41,0.27-0.34,0.48c0.25,0.79,0.98,1.36,1.96,1.45c0.1,0.01,0.3-0.02,0.42-0.18
			c0.12-0.16,0.12-0.37,0.02-0.54C387.37,312.09,386.65,311.73,385.77,311.67z"/>
		<linearGradient id="SVGID_57_" gradientUnits="userSpaceOnUse" x1="400.0307" y1="343.8856" x2="402.0103" y2="343.8856">
			<stop  offset="0" style="stop-color:#29ABE2"/>
			<stop  offset="1" style="stop-color:#0071BC"/>
		</linearGradient>
		<path class="st57" d="M401.41,343.3c-0.08-0.01-0.15-0.01-0.37-0.02c-0.12,0.02-0.39,0.05-0.64,0.12
			c-0.25,0.07-0.42,0.39-0.37,0.63c0.05,0.25,0.22,0.39,0.46,0.43c0.37,0.05,0.76,0.08,1.1-0.12c0.24-0.14,0.4-0.34,0.4-0.64
			C402.01,343.49,401.76,343.33,401.41,343.3z"/>
		<linearGradient id="SVGID_58_" gradientUnits="userSpaceOnUse" x1="368.4336" y1="269.1652" x2="369.4197" y2="269.1652">
			<stop  offset="0" style="stop-color:#29ABE2"/>
			<stop  offset="1" style="stop-color:#0071BC"/>
		</linearGradient>
		<path class="st58" d="M369,270.22c0.21-0.01,0.34-0.15,0.37-0.36c0.03-0.19,0.03-0.38,0.04-0.57c-0.01,0-0.02,0-0.02,0
			c0-0.27,0.01-0.53,0-0.8c-0.01-0.2-0.12-0.37-0.34-0.39c-0.2-0.01-0.38,0.09-0.47,0.26c-0.07,0.13-0.13,0.28-0.13,0.43
			c-0.01,0.38-0.06,0.76,0.11,1.12C368.65,270.1,368.79,270.23,369,270.22z"/>
		<linearGradient id="SVGID_59_" gradientUnits="userSpaceOnUse" x1="361.9743" y1="273.0942" x2="363.1427" y2="273.0942">
			<stop  offset="0" style="stop-color:#29ABE2"/>
			<stop  offset="1" style="stop-color:#0071BC"/>
		</linearGradient>
		<path class="st59" d="M362.04,273.75c0.03,0.14,0.14,0.27,0.24,0.37c0.24,0.24,0.66,0.16,0.75-0.15c0.19-0.64,0.17-1.28-0.17-1.88
			c-0.07-0.13-0.23-0.18-0.4-0.18c-0.18,0.01-0.28,0.13-0.35,0.26c-0.16,0.28-0.12,0.59-0.13,0.99
			C361.99,273.3,361.98,273.53,362.04,273.75z"/>
		<linearGradient id="SVGID_60_" gradientUnits="userSpaceOnUse" x1="367.5587" y1="259.0008" x2="368.7914" y2="259.0008">
			<stop  offset="0" style="stop-color:#29ABE2"/>
			<stop  offset="1" style="stop-color:#0071BC"/>
		</linearGradient>
		<path class="st60" d="M368.21,257.78c-0.18-0.03-0.28,0.11-0.35,0.23c-0.5,0.84-0.4,1.37,0.45,2.22c0.53-0.74,0.64-1.43,0.23-2.17
			C368.47,257.93,368.38,257.8,368.21,257.78z"/>
		<linearGradient id="SVGID_61_" gradientUnits="userSpaceOnUse" x1="361.132" y1="262.8771" x2="362.2638" y2="262.8771">
			<stop  offset="0" style="stop-color:#29ABE2"/>
			<stop  offset="1" style="stop-color:#0071BC"/>
		</linearGradient>
		<path class="st61" d="M361.88,263.92c0.15-0.03,0.27-0.15,0.3-0.31c0.04-0.22,0.06-0.45,0.09-0.73c-0.03-0.21-0.04-0.48-0.11-0.73
			c-0.05-0.19-0.21-0.31-0.42-0.32c-0.21-0.01-0.37,0.07-0.46,0.26c-0.25,0.56-0.13,1.12,0.11,1.64
			C361.46,263.91,361.68,263.96,361.88,263.92z"/>
		<linearGradient id="SVGID_62_" gradientUnits="userSpaceOnUse" x1="671.0182" y1="287.717" x2="672.7874" y2="287.717">
			<stop  offset="0" style="stop-color:#29ABE2"/>
			<stop  offset="1" style="stop-color:#0071BC"/>
		</linearGradient>
		<path class="st62" d="M671.91,286.35c-0.31,0.11-0.54,0.3-0.64,0.61c-0.12,0.36-0.18,0.74-0.24,0.99c0,0.24-0.01,0.35,0,0.47
			c0.03,0.28,0.14,0.52,0.39,0.66c0.22,0.13,0.61,0.04,0.84-0.17c0.11-0.1,0.23-0.22,0.28-0.36c0.22-0.58,0.35-1.17,0.17-1.78
			C672.59,286.38,672.28,286.22,671.91,286.35z"/>
		<linearGradient id="SVGID_63_" gradientUnits="userSpaceOnUse" x1="666.1458" y1="269.432" x2="667.7868" y2="269.432">
			<stop  offset="0" style="stop-color:#29ABE2"/>
			<stop  offset="1" style="stop-color:#0071BC"/>
		</linearGradient>
		<path class="st63" d="M666.83,270.88c0.3,0.05,0.64-0.13,0.75-0.41c0.27-0.66,0.25-1.34,0.08-2.02c-0.08-0.33-0.34-0.47-0.7-0.48
			c-0.34,0-0.61,0.16-0.69,0.48c-0.07,0.29-0.09,0.6-0.13,0.88c0.04,0.36,0.04,0.71,0.12,1.04
			C666.32,270.66,666.54,270.83,666.83,270.88z"/>
		<linearGradient id="SVGID_64_" gradientUnits="userSpaceOnUse" x1="672.1364" y1="277.2047" x2="673.954" y2="277.2047">
			<stop  offset="0" style="stop-color:#29ABE2"/>
			<stop  offset="1" style="stop-color:#0071BC"/>
		</linearGradient>
		<path class="st64" d="M673.77,276.3c-0.12-0.31-0.37-0.47-0.71-0.48c-0.33,0-0.58,0.16-0.74,0.44c-0.3,0.53-0.22,1.58,0.17,2.06
			c0.32,0.4,1.04,0.33,1.23-0.15c0.14-0.35,0.25-0.72,0.23-1.25C673.92,276.81,673.87,276.55,673.77,276.3z"/>
		<linearGradient id="SVGID_65_" gradientUnits="userSpaceOnUse" x1="664.9522" y1="281.032" x2="666.6822" y2="281.032">
			<stop  offset="0" style="stop-color:#29ABE2"/>
			<stop  offset="1" style="stop-color:#0071BC"/>
		</linearGradient>
		<path class="st65" d="M665.55,282.45c0.43,0.07,0.75-0.11,0.88-0.53c0.11-0.36,0.17-0.74,0.25-1.09
			c-0.04-0.24-0.07-0.47-0.13-0.69c-0.08-0.26-0.23-0.48-0.53-0.52c-0.33-0.04-0.61,0.06-0.79,0.33c-0.1,0.15-0.16,0.34-0.21,0.52
			c-0.12,0.45-0.06,0.9,0,1.35C665.06,282.21,665.24,282.4,665.55,282.45z"/>
		<linearGradient id="SVGID_66_" gradientUnits="userSpaceOnUse" x1="387.0344" y1="344.6666" x2="388.5468" y2="344.6666">
			<stop  offset="0" style="stop-color:#29ABE2"/>
			<stop  offset="1" style="stop-color:#0071BC"/>
		</linearGradient>
		<path class="st66" d="M388.4,344.28c-0.11-0.02-0.22-0.04-0.25-0.04c-0.44-0.03-0.78,0-1.02,0.31c-0.06,0.08-0.12,0.21-0.09,0.3
			c0.03,0.09,0.14,0.2,0.23,0.22c0.52,0.14,1.01-0.07,1.25-0.53C388.57,344.45,388.55,344.31,388.4,344.28z"/>
		<linearGradient id="SVGID_67_" gradientUnits="userSpaceOnUse" x1="357.8518" y1="280.6999" x2="676.487" y2="280.6999">
			<stop  offset="0" style="stop-color:#29ABE2"/>
			<stop  offset="1" style="stop-color:#0071BC"/>
		</linearGradient>
		<path class="st67" d="M676.24,274.55c-0.18-0.34-0.34-0.68-0.53-1.01c-0.48-0.86-1.12-1.55-2.1-1.83
			c-0.39-0.11-0.57-0.35-0.65-0.71c-0.02-0.11-0.05-0.22-0.08-0.33c-0.66-2.95-1.55-5.82-2.8-8.56c-0.28-0.6-0.43-1.22-0.4-1.88
			c0.01-0.23-0.01-0.46-0.02-0.69c-0.12-1.98-1.01-3.51-2.73-4.48c-0.82-0.46-1.48-1.05-2.03-1.8c-3.53-4.77-7.82-8.74-12.72-12.07
			c-0.41-0.28-0.82-0.58-1.27-0.76c-1.11-0.44-2.07-1.13-3.09-1.72c-0.59-0.35-1.19-0.68-1.8-1c-1.49-0.78-3.06-1.37-4.73-1.65
			c-1.01-0.17-2.02-0.37-3.06-0.14c-1.91,0.42-2.97,2.3-2.27,4.12c0.18,0.46,0.42,0.9,0.68,1.32c0.78,1.27,1.72,2.42,2.79,3.47
			c1.04,1.01,2.15,1.94,3.29,2.84c1.77,1.41,3.34,3.02,4.6,4.91c1.51,2.26,2.42,4.73,2.73,7.44c0.21,1.88,0.06,3.73-0.3,5.57
			c-1.27,6.63-4.75,11.71-10.61,15.13c-3.68,2.15-7.69,3.28-11.9,3.77c-2.74,0.32-5.47,0.32-8.22,0.06
			c-3.51-0.34-6.92-1.12-10.21-2.37c-0.31-0.12-0.67-0.17-0.98-0.56c1.12-0.41,2.19-0.79,3.26-1.21c1.33-0.51,2.55-1.21,3.58-2.21
			c0.16-0.16,0.35-0.3,0.54-0.41c1.48-0.86,2.63-2.07,3.62-3.44c1.82-2.52,3.2-5.27,4.17-8.23c1.15-3.54,1.69-7.19,2-10.88
			c0.38-4.57,0.3-9.15,0.17-13.72c-0.06-2.21-0.16-4.42-0.09-6.63c0.12-4.02,1.57-7.5,4.37-10.39c0.5-0.52,1.03-1.02,1.54-1.54
			c0.56-0.58,1.11-1.15,1.64-1.76c0.48-0.55,0.85-1.18,1.09-1.86c0.58-1.62,0.12-3.03-1.3-4c-0.6-0.41-1.28-0.68-1.98-0.86
			c-2.22-0.57-4.45-0.62-6.68-0.11c-3.97,0.91-7.34,2.91-10.27,5.7c-2.01,1.91-3.57,4.17-4.88,6.59c-1.91,3.53-3.34,7.26-4.39,11.14
			c-0.65,2.39-1.26,4.79-2.04,7.14c-0.63,1.9-1.54,3.65-2.85,5.18c-2.48,2.88-5.62,4.23-9.43,3.9c-0.46-0.04-0.89-0.07-1.34,0.1
			c-0.42,0.16-1.08-0.47-0.87-0.86c0.35-0.65,0.28-1.34,0.38-2c0.46-3.07,1.34-6.02,2.5-8.89c1.36-3.36,2.53-6.78,3.54-10.26
			c1.12-3.89,1.92-7.85,2.52-11.84c0.4-2.64,0.71-5.29,0.72-7.97c0-0.99-0.05-1.98,0.14-2.97c0.04-0.22,0.05-0.46,0.01-0.68
			c-0.2-1.14-0.1-2.28-0.13-3.42c-0.06-1.87-0.24-3.73-0.44-5.59c-0.42-3.76-1.11-7.46-2.22-11.08c-1.48-4.82-3.45-9.44-5.76-13.92
			c-6.49-12.59-15.63-22.76-27.62-30.34c-5.59-3.54-11.55-6.35-17.77-8.58c-2.84-1.02-5.71-1.92-8.69-2.38
			c-1.09-0.17-2.12-0.62-3.23-0.62c-0.83-0.38-1.69-0.4-2.58-0.26c-0.31,0.05-0.6,0.03-0.83-0.24c-0.24-0.28-0.59-0.32-0.94-0.35
			c-1.82-0.17-3.65-0.34-5.47-0.52c-0.6-0.06-1.23-0.09-1.8-0.27c-0.33-0.1-0.65-0.18-0.99-0.18c-4.84,0-9.69,0-14.53,0
			c-0.26,0-0.55-0.07-0.78,0.1c-0.27,0.2-0.57,0.18-0.87,0.21c-2.05,0.19-4.1,0.36-6.15,0.58c-4.86,0.52-9.64,1.45-14.37,2.68
			c-11.06,2.88-21.31,7.53-30.83,13.85c-5.71,3.79-11,8.08-15.74,13.04c-5.55,5.8-10.1,12.3-13.63,19.52
			c-4.41,9.03-7.19,18.52-8.06,28.55c-0.34,3.92-0.38,7.84-0.12,11.77c0.33,5.15,1.1,10.23,2.35,15.23
			c2.57,10.28,7.11,19.6,13.79,27.84c1.23,1.51,2.49,2.99,3.86,4.37c0.71,0.72,0.89,1.47,0.4,2.37c-0.38,0.7-0.72,1.43-1.1,2.13
			c-3.44,6.26-8.27,11.09-14.75,14.2c-2.88,1.39-5.91,2.25-9.11,2.39c-5.25,0.23-10.03-1.21-14.35-4.16
			c-4.03-2.75-7.26-6.29-9.81-10.42c-2.07-3.34-3.83-6.84-4.8-10.69c-0.29-1.14-0.73-2.24-0.98-3.4c-0.11-0.52-0.31-1.01-0.27-1.56
			c0.02-0.22-0.05-0.46-0.14-0.66c-0.21-0.47-0.23-0.96-0.27-1.45c-0.24-2.54-0.45-5.09-0.91-7.61c-0.33-1.81-0.83-3.56-1.8-5.15
			c-0.44-0.72-0.96-1.38-1.64-1.89c-1.08-0.8-2.26-1.04-3.57-0.67c-0.75,0.21-1.41,0.57-2.03,1.02c-1.13,0.81-2.09,1.79-2.86,2.93
			c-1.41,2.09-2.69,4.26-3.47,6.67c-0.5,1.52-0.96,3.05-1.42,4.59c-0.16,0.54-0.44,0.89-0.91,1.23c-1.38,0.99-2.36,2.26-2.24,4.1
			c0.02,0.27,0.02,0.54,0,0.8c-0.05,0.67,0.11,1.24,0.48,1.82c1,1.57,1.37,3.3,0.9,5.14c-0.1,0.4-0.24,0.8-0.39,1.19
			c-0.45,1.21-0.42,2.41,0.13,3.56c0.35,0.74,0.56,1.5,0.65,2.29c0.17,1.44,0.3,2.86-0.07,4.31c-0.34,1.33-0.15,2.66,0.52,3.88
			c0.25,0.47,0.54,0.92,0.88,1.33c0.61,0.75,1.02,1.58,1.33,2.5c1.58,4.72,3.72,9.18,6.53,13.3c3.76,5.5,8.29,10.24,13.79,14.04
			c0.28,0.19,0.57,0.39,0.82,0.62c1.08,1,1.04,0.86-0.15,1.61c-0.23,0.14-0.45,0.29-0.68,0.42c-4.28,2.51-8.02,5.68-11.45,9.24
			c-3.31,3.43-6.06,7.25-8.12,11.55c-1.99,4.13-3.2,8.48-3.73,13.02c-0.18,1.51-0.33,3.03-0.28,4.56c0.04,1.23,0.24,2.43,0.68,3.58
			c0.78,2.05,2.21,2.59,4.19,1.61c0.72-0.36,1.36-0.85,1.95-1.39c1.33-1.21,2.51-2.55,3.62-3.97c1.38-1.78,2.66-3.63,3.87-5.53
			c1.1-1.72,2.51-3.16,3.91-4.61c0.39-0.41,0.87-0.74,1.33-1.08c0.21-0.16,0.45-0.29,0.7-0.38c1.16-0.38,2.32-0.75,3.49-1.1
			c0.5-0.15,0.77-0.08,1.02,0.43c0.48,0.96,1.32,1.44,2.33,1.66c1.35,0.3,2.65,0.13,3.9-0.44c0.97-0.44,1.74-1.09,2.04-2.18
			c0.03-0.11,0.08-0.21,0.13-0.32c0.17-0.39,0.45-0.59,0.89-0.59c0.61,0,1.22-0.01,1.83-0.05c0.64-0.04,1.11,0.2,1.42,0.76
			c0.09,0.17,0.19,0.33,0.3,0.48c2.11,2.96,6.15,3.22,8.62,0.54c0.23-0.25,0.44-0.53,0.67-0.78c0.3-0.33,0.67-0.5,1.12-0.46
			c0.83,0.08,1.67,0.16,2.5,0.25c0.34,0.04,0.55,0.23,0.65,0.55c0.04,0.11,0.07,0.22,0.1,0.33c0.38,1.36,1.31,2.21,2.58,2.71
			c2.04,0.8,4.8,0.37,6.09-1.31c0.59-0.77,1.47-1.06,2.42-1.1c0.3-0.02,0.61,0.03,0.91,0.01c0.93-0.06,1.64,0.22,1.95,1.17
			c1.81,2.95,5.91,3.51,8.49,0.98c0.27-0.27,0.5-0.58,0.75-0.86c0.92-1.06,2.53-1.17,3.57-0.24c0.23,0.2,0.43,0.43,0.67,0.62
			c1.7,1.33,3.59,1.8,5.69,1.18c1.28-0.38,2.33-1.14,3.14-2.19c0.49-0.63,1.1-1.05,1.8-1.37c0.42-0.19,0.85-0.35,1.28-0.48
			c1.11-0.31,2.23-0.45,3.38-0.09c0.47,0.15,0.97,0.2,1.47,0.22c2.19,0.1,3.94-0.8,5.25-2.5c0.69-0.9,1.53-1.58,2.49-2.15
			c1.12-0.66,2.29-1.21,3.46-1.76c1.62-0.76,3.25-1.5,4.72-2.54c0.06-0.04,0.13-0.08,0.2-0.1c0.12-0.02,0.24,0.01,0.26,0.14
			c0.03,0.26,0.05,0.53,0.03,0.79c-0.08,1.1-0.16,2.2-0.26,3.31c-0.23,2.79-0.09,5.57,0.15,8.34c0.37,4.15,1.25,8.21,2.48,12.19
			c1.79,5.81,4.41,11.19,8.22,15.96c0.14,0.18,0.28,0.37,0.4,0.56c0.59,0.9,1.3,1.69,2.09,2.42c0.87,0.8,1.76,1.58,2.63,2.38
			c2.38,2.15,4.69,4.36,6.79,6.8c1.64,1.9,2.85,4.05,3.79,6.35c1.26,3.08,1.54,6.28,0.75,9.53c-0.39,1.6-1.02,3.11-1.8,4.56
			c-0.63,1.17-1.31,2.32-1.96,3.49c-1.18,2.1-2.22,4.25-2.95,6.55c-0.53,1.68-0.87,3.4-0.98,5.16c-0.16,2.62,0.78,4.7,3.08,6.07
			c0.07,0.04,0.13,0.08,0.19,0.12c0.45,0.3,0.93,0.49,1.5,0.44c0.49-0.04,0.99-0.03,1.49,0c0.62,0.03,1.19-0.12,1.77-0.35
			c3.2-1.27,6-3.14,8.51-5.48c2.8-2.61,6.07-6.89,8.37-10.67c0.78-1.27,1.47-2.58,2.13-3.91c2.9-5.91,3.91-12.15,3.27-18.67
			c-0.34-3.46-1.14-6.84-2.13-10.17c-1.17-3.91-2.62-7.72-4.11-11.51c-1.34-3.41-2.46-6.89-2.97-10.54
			c-0.33-2.39-0.44-4.78-0.18-7.18c0.19-1.75,0.55-3.46,0.88-5.18c0.17-0.86,0.25-1.73,0.57-2.56c1.3-3.39,2.87-6.65,4.81-9.72
			c0.2-0.32,0.39-0.66,0.64-0.95c1.97-2.31,4.21-4.3,6.9-5.75c2.24-1.21,4.64-1.73,7.18-1.42c2.14,0.26,4.16,0.94,6.06,1.95
			c3.24,1.71,6.31,3.7,9.32,5.79c3.35,2.33,6.72,4.63,10.21,6.75c4.58,2.77,9.34,5.15,14.42,6.87c3.99,1.35,8.08,2.24,12.28,2.55
			c4.05,0.3,8.08-0.04,12.07-0.73c4.1-0.71,8.13-1.71,12.15-2.76c4.02-1.05,8.03-2.12,12.15-2.72c2.57-0.38,5.14-0.64,7.75-0.41
			c4.48,0.39,8.31,2.1,11.43,5.36c0.61,0.63,1.25,1.23,1.87,1.85c0.65,0.65,1.32,1.27,1.93,1.95c1.11,1.25,2.49,2.13,3.99,2.82
			c2.52,1.15,5.22,0.24,6.6-2.17c0.27-0.47,0.46-0.96,0.62-1.47c0.79-2.53,0.9-5.09,0.36-7.68c-0.46-2.22-1.29-4.3-2.35-6.3
			c-0.18-0.33-0.43-0.65-0.45-1.04c-0.03-0.44-0.25-0.79-0.45-1.16c-1.35-2.45-2.91-4.74-4.76-6.84c-0.12-0.14-0.24-0.29-0.32-0.46
			c-0.04-0.08-0.01-0.24,0.05-0.3c0.06-0.07,0.22-0.13,0.3-0.1c0.5,0.18,0.96,0.44,1.5,0.52c2.03,0.3,3.77-0.32,5.29-1.62
			c1.72-1.47,2.75-3.33,3.05-5.59c0.29-2.13,1.5-3.53,3.51-4.24c0.43-0.15,0.87-0.29,1.28-0.5c2.01-0.99,3.18-2.56,3.24-4.86
			c0.02-0.65,0.12-1.29,0.3-1.92c0.43-1.51,1.17-2.89,1.91-4.27c0.3-0.56,0.82-0.88,1.42-1.09c2.26-0.79,3.52-2.45,4.05-4.71
			c0.31-1.31,0.18-2.57-0.5-3.76c-0.08-0.13-0.16-0.26-0.22-0.4c-0.56-1.22-0.32-2.63,0.63-3.59c0.24-0.24,0.51-0.46,0.76-0.69
			c2-1.88,2.77-5.29,0.87-8.17c-0.15-0.22-0.32-0.43-0.46-0.66c-0.26-0.42-0.25-0.63,0.15-0.86c0.84-0.48,1.25-1.29,1.79-2.04
			c0.59-0.82,0.54-1.71,0.54-2.62c0-0.5-0.02-0.99,0-1.49C676.5,275.25,676.41,274.89,676.24,274.55z M400.47,307.01
			c1.25,0.46,2.5,0.93,3.74,1.43c1.85,0.75,3.77,1.2,5.74,1.47c2.53,0.35,5.07,0.64,7.63,0.69c0.15,0,0.3,0.03,0.45,0.05
			c-1.57,0.29-3.13,0.44-4.69,0.4c-2.44-0.06-4.88,0-7.31,0.25c-1.71,0.18-3.4,0.41-5.07,0.82c-0.32,0.08-0.44-0.03-0.37-0.32
			c0.06-0.3,0.12-0.6,0.2-0.89c0.29-1.14,0.08-2.19-0.55-3.17c-0.18-0.28-0.36-0.57-0.54-0.86
			C400,306.74,400.24,306.92,400.47,307.01z M395.55,305.18c1.69,0.46,2.99,1.47,3.93,2.95c0.35,0.56,0.56,1.17,0.65,1.82
			c0.17,1.24-0.59,2.33-1.78,2.69c-2.45,0.74-4.41-0.13-6.12-1.79c-0.82-0.79-1.25-1.97-1.25-2.99c0-1.16,0.58-2.05,1.65-2.5
			C393.58,304.95,394.57,304.91,395.55,305.18z M384.43,297.01c0.45,0.06,0.89,0.18,1.34,0.28c0.38,0.09,0.71,0.22,0.87,0.65
			c0.11,0.3,0.39,0.5,0.71,0.5c0.41-0.01,0.63,0.22,0.83,0.51c0.33,0.47,0.69,0.92,0.98,1.41c0.46,0.76,0.62,1.45,0.61,2.4
			c-0.01,0.08-0.01,0.27-0.04,0.46c-0.2,1.45-1.26,2.42-2.72,2.4c-1.39-0.01-2.59-0.57-3.65-1.43c-1.28-1.05-1.9-2.45-2.1-4.06
			C381.04,298.45,382.44,296.73,384.43,297.01z M379.04,287.26c0.38,0.34,0.64,0.7,0.67,1.25c0.04,0.65,0.29,1.28,0.8,1.73
			c0.43,0.37,0.51,0.82,0.51,1.34c-0.06,0.41-0.12,0.83-0.19,1.24c-0.26,1.54-2.03,2.53-3.51,2.1c-0.18-0.05-0.37-0.1-0.55-0.17
			c-2.28-0.88-4.05-3.83-3.77-6.25c0.22-1.86,2.09-3.35,4.12-2.44C377.82,286.36,378.46,286.75,379.04,287.26z M374.57,278.92
			c0.12,0.55,0.22,1.12,0.19,1.62c0.04,0.89-0.13,1.66-0.45,2.4c-0.82,1.88-2.76,2.41-4.44,1.21c-1-0.71-1.61-1.7-1.98-2.85
			c-0.37-1.15-0.47-2.3-0.17-3.48c0.18-0.71,0.5-1.36,1-1.9c0.89-0.97,2.2-1.19,3.32-0.51
			C373.36,276.22,374.23,277.39,374.57,278.92z M373.06,271.27c0.27,0.95,0.56,1.89,0.65,2.89c0.03,0.37,0.1,0.75-0.17,1.08
			c-0.18,0.1-0.27-0.05-0.38-0.14c-1.2-1.01-2.52-1.13-3.95-0.56c-0.18,0.07-0.35,0.14-0.53,0.21c-1.03,0.77-1.52,1.87-1.81,3.07
			c-0.12,0.52-0.23,1.04-0.35,1.64c-0.87-0.57-1.67-1.17-2.52-1.73c-0.01-0.13,0.08-0.24,0.2-0.33c0.8-0.65,1.24-1.52,1.5-2.5
			c0.14-0.55,0.29-1.1,0.46-1.64c0.09-0.27,0.3-0.32,0.51-0.1c0.49,0.5,1.12,0.78,1.75,1.04c1.71,0.07,2.77-0.85,3.46-2.3
			c0.21-0.44,0.35-0.92,0.53-1.39C372.79,270.6,372.95,270.89,373.06,271.27z M366.33,270.56c-0.3-0.19-0.34-0.48-0.36-0.79
			c-0.08-1.09,0.15-2.11,0.68-3.07c0.94-1.69,3.22-1.7,4.21-0.04c0.49,0.83,0.79,1.73,0.79,2.71c0.03,1.3-0.46,2.38-1.39,3.27
			c-0.87,0.84-1.83,0.88-2.77,0.13c-0.3-0.24-0.54-0.54-0.81-0.8c-0.2-0.2-0.33-0.39-0.18-0.7
			C366.63,271.01,366.6,270.73,366.33,270.56z M370.91,262.11c0.16-0.29,0.27-0.61,0.41-0.91c0.34,0.12,0.27,0.38,0.27,0.59
			c0,0.61-0.08,1.22-0.02,1.82c0.08,0.87,0.25,1.73,0.39,2.6c0.05,0.33,0.16,0.66,0.07,1c-0.26-0.08-0.27-0.34-0.38-0.52
			c-0.2-0.32-0.37-0.67-0.59-0.98c-1.13-1.6-3.43-1.52-4.57-0.19c-0.37,0.44-0.68,0.92-0.87,1.46c-0.16,0.47-0.3,0.94-0.42,1.42
			c-0.09,0.36-0.12,0.74-0.3,1.08c-0.29-0.03-0.48-0.25-0.7-0.39c-0.95-0.62-1.95-0.83-3.04-0.48c-0.11,0.03-0.22,0.07-0.33,0.08
			c-0.2,0.02-0.38-0.04-0.43-0.27c-0.05-0.24-0.05-0.49,0.2-0.59c0.28-0.11,0.59-0.15,0.88-0.21c0.44-0.1,0.9-0.18,1.33-0.32
			c0.98-0.31,1.59-0.99,1.91-1.96c0.22-0.66,0.25-1.35,0.36-2.02c0.03-0.19,0.06-0.37,0.08-0.53c0.26-0.16,0.37,0.05,0.51,0.15
			c0.16,0.11,0.3,0.23,0.46,0.34C367.88,264.44,369.92,263.95,370.91,262.11z M370.69,259.11c0.02,0.79-0.14,1.49-0.44,2.16
			c-0.12,0.28-0.26,0.55-0.44,0.79c-0.95,1.27-2.25,1.57-3.43,0.17c-1.24-1.48-1.58-3.17-0.91-5.02c0.2-0.54,0.52-1.02,0.95-1.41
			c0.97-0.89,2.24-0.85,3.17,0.08c0.42,0.42,0.68,0.92,0.84,1.47C370.6,257.95,370.73,258.55,370.69,259.11z M361.81,257.65
			c0.68-2.62,1.49-5.19,2.89-7.53c0.26-0.44,0.58-0.68,1.08-0.69c0.11,0,0.22-0.04,0.34-0.06c1.34-0.21,1.96,0.09,2.59,1.31
			c0.54,1.05,1.01,2.13,1.28,3.28c0.09,0.4,0.33,0.77,0.25,1.35c-0.37-0.25-0.64-0.45-0.93-0.63c-0.8-0.52-1.64-0.55-2.5-0.15
			c-1.26,0.59-2.02,1.59-2.29,2.94c-0.12,0.63-0.16,1.28-0.24,1.92c-0.27,0.18-0.42-0.08-0.57-0.2c-0.52-0.38-1-0.82-1.65-1
			C361.79,258.12,361.75,257.89,361.81,257.65z M358.79,262.89c-0.04-0.73,0.17-1.5,0.51-2.23c0.2-0.41,0.47-0.78,0.81-1.09
			c0.82-0.73,1.75-0.79,2.58-0.08c2.16,1.85,2.06,4.85,0.62,6.57c-1.06,1.27-2.72,1.18-3.7-0.16
			C359.09,265.18,358.79,264.12,358.79,262.89z M359.47,273.23c0-1.07,0.29-2.05,0.88-2.92c0.63-0.95,1.69-1.29,2.7-0.93
			c0.45,0.16,0.8,0.45,1.07,0.83c1.45,2.04,1.37,4.4-0.33,6.29c-0.76,0.84-1.59,0.89-2.55,0.25
			C359.97,275.9,359.51,274.66,359.47,273.23z M362.46,287.21c-1.24-0.96-1.93-2.22-2.06-3.78c-0.03-0.38,0.01-0.76-0.01-1.14
			c-0.03-0.56,0.08-1.01,0.57-1.39c0.4-0.3,0.55-0.81,0.61-1.31c0.04-0.36,0.25-0.52,0.59-0.58c1.56-0.28,2.86,0.18,3.88,1.38
			c0.8,0.94,1.12,2.05,1.12,3.41c-0.02,0.94-0.23,1.97-0.88,2.87c-0.9,1.23-2.33,1.49-3.62,0.67
			C362.59,287.3,362.52,287.26,362.46,287.21z M364.73,292.17c-0.06,0.14-0.1,0.29-0.35,0.34c-0.45-1.09-0.92-2.2-1.37-3.32
			c-0.15-0.38,0-0.56,0.43-0.56c0.27,0,0.53,0.02,0.8,0.02c0.8,0.01,1.49-0.29,2.07-0.82c0.8-0.74,1.39-1.61,1.52-2.73
			c0.04-0.4,0.1-0.8,0.16-1.2c0.36,0,0.5,0.27,0.71,0.41c0.47,0.32,0.91,0.69,1.41,0.96c1.17,0.65,2.33,0.58,3.45-0.17
			c1.06-0.71,1.73-1.69,1.98-2.95c0.06-0.3,0.11-0.6,0.18-0.89c0.03-0.15,0.26-0.2,0.36-0.07c0.88,1.21,1.6,2.48,1.79,4
			c0,0.03-0.03,0.06-0.1,0.2c-0.53-0.14-1.01-0.4-1.54-0.47c-1.32-0.17-2.3,0.31-2.99,1.43c-0.51,0.82-0.76,1.73-0.92,2.68
			c-0.07,0.45-0.15,0.89-0.22,1.37c-0.46,0.02-0.73-0.25-1.02-0.48c-1.86-1.46-4.65-0.93-5.81,1.12
			C365.04,291.39,364.89,291.79,364.73,292.17z M365.71,294.65c-0.14-0.51-0.22-1.05-0.24-1.57c-0.04-2.14,1.77-3.54,3.84-2.97
			c0.98,0.27,1.78,0.83,2.47,1.57c1.04,1.13,1.67,2.69,1.67,4.2c0.03,0.44-0.07,0.92-0.24,1.39c-0.52,1.46-1.89,2.2-3.37,1.74
			C367.67,298.33,366.32,296.81,365.71,294.65z M367.87,299.24c0.16-0.12,0.28,0,0.41,0.06c0.42,0.17,0.84,0.36,1.27,0.51
			c2.48,0.87,4.69-1.28,4.8-3.35c0.03-0.61,0.04-1.22-0.11-1.82c-0.04-0.18-0.11-0.36-0.03-0.56c0.3,0,0.46,0.25,0.67,0.39
			c0.45,0.29,0.89,0.59,1.35,0.85c0.79,0.44,1.65,0.59,2.54,0.45c0.32-0.05,0.59-0.07,0.78,0.28c0.17,0.31,0.49,0.46,0.8,0.62
			c0.27,0.13,0.57,0.23,0.81,0.56c-0.22,0.62-0.6,1.24-0.76,1.94c-0.16,0.72-0.08,1.44-0.05,2.15c-0.25,0.13-0.35-0.08-0.47-0.19
			c-0.59-0.55-1.22-1.04-1.94-1.4c-1.22-0.62-2.46-0.69-3.75-0.18c-1.32,0.52-1.99,1.49-2.07,2.87c-0.03,0.61,0.02,1.22,0.05,1.83
			c0.01,0.3,0.05,0.61,0.08,1.04C370.89,304.24,368.55,300.97,367.87,299.24z M374.94,307.8c-1.25-1.17-1.94-2.61-2.09-4.31
			c-0.05-0.58,0.06-1.14,0.27-1.67c0.59-1.49,2.06-2.15,3.65-1.64c0.97,0.31,1.76,0.89,2.42,1.65c1,1.16,1.61,2.48,1.62,4.04
			c0.01,0.66-0.13,1.28-0.44,1.87c-0.62,1.15-1.69,1.67-2.95,1.39C376.48,308.92,375.65,308.47,374.94,307.8z M376.23,310.02
			c0.23-0.23,0.46-0.1,0.66-0.11c0.53-0.01,1.07,0.03,1.6-0.02c1.64-0.18,2.71-1.21,2.98-2.84c0.1-0.6,0.14-1.21,0.07-1.82
			c-0.06-0.53-0.1-1.06-0.15-1.59c0.25-0.12,0.33,0.11,0.45,0.22c0.57,0.57,1.14,1.12,1.81,1.57c1.01,0.66,2.1,1.02,3.32,1.09
			c2.23,0.14,4.56-2.62,3.43-4.93c-0.05-0.1-0.1-0.21-0.13-0.32c-0.07-0.21-0.23-0.47-0.01-0.63c0.18-0.13,0.45,0,0.63,0.12
			c0.45,0.29,0.89,0.58,1.31,0.91c0.87,0.68,1.67,1.46,2.59,2.08c0.08,0.05,0.16,0.19,0.15,0.28c-0.01,0.17-0.18,0.22-0.31,0.28
			c-0.22,0.09-0.45,0.03-0.68,0c-1.46-0.18-2.52,0.43-3.23,1.67c-0.81,1.41-0.78,2.85,0.06,4.23c0.89,1.47,2.04,2.66,3.76,3.16
			c0.06,0.02,0.1,0.07,0.23,0.18c-1.05,0.42-2.07,0.7-3,1.07c-0.3-0.2-0.21-0.45-0.21-0.66c-0.05-1.33-0.58-2.43-1.5-3.36
			c-0.67-0.69-1.45-1.23-2.32-1.65c-1.27-0.62-2.58-0.64-3.88-0.14c-1.29,0.5-2.31,1.72-2.02,3.57c0.26,1.68,1.1,2.98,2.57,3.86
			c0.46,0.27,0.91,0.55,1.36,0.81c-0.05,0.34-0.28,0.47-0.56,0.63C382.1,315.28,378.88,312.99,376.23,310.02z M390.48,314.92
			c-0.12,0.38-0.3,0.68-0.71,0.82c-0.36,0.12-0.73,0.25-1.05,0.45c-0.72,0.43-1.43,0.37-2.2,0.14c-1.49-0.45-2.65-1.3-3.46-2.63
			c-0.32-0.53-0.51-1.1-0.51-1.73c0.01-1.12,0.58-1.96,1.64-2.37c0.18-0.07,0.36-0.13,0.55-0.16c0.3-0.05,0.6-0.08,0.83-0.11
			c0.69,0.02,1.29,0.11,1.85,0.38c1.05,0.5,1.93,1.22,2.61,2.17C390.7,312.8,390.82,313.83,390.48,314.92z M390.73,345.1
			c-0.65,0.69-1.49,1.04-2.41,1.18c-0.3,0.05-0.61,0.04-0.91,0.06c-0.75,0.05-1.43-0.17-2.07-0.54c-1.07-0.63-1.23-1.85-0.32-2.68
			c1.55-1.4,3.62-1.53,5.21-0.77C391.38,342.9,391.6,344.18,390.73,345.1z M396.52,341.98c-0.24,0.43-0.56,0.67-1.1,0.66
			c-0.68-0.02-1.37,0.04-2.05,0.07c-0.75,0.03-1.44-0.09-1.97-0.7c-0.26-0.3-0.61-0.44-1-0.51c-0.26-0.05-0.53-0.07-0.74-0.3
			c0.31-0.33,0.74-0.4,1.14-0.5c2.04-0.51,4.12-0.75,6.22-0.8c0.31-0.01,0.61,0,0.93,0.3c-0.32,0.29-0.63,0.51-0.87,0.8
			C396.86,341.28,396.71,341.64,396.52,341.98z M404.66,344.56c-0.88,1.18-2.1,1.7-3.51,1.74c-1.02-0.04-1.93-0.29-2.76-0.78
			c-1.55-0.91-1.78-2.82-0.49-4.07c1.17-1.15,2.65-1.43,4.23-1.25c0.68,0.08,1.34,0.3,1.91,0.69
			C405.36,341.81,405.62,343.27,404.66,344.56z M418.5,345.98c-0.61,0.68-1.41,1.03-2.28,1.21c-0.45,0.09-0.91,0.11-1.15,0.13
			c-1.07,0-1.88-0.19-2.61-0.63c-1.69-1-1.87-3.05-0.37-4.3c1.85-1.55,4.06-1.48,5.85-0.42
			C419.44,342.85,419.67,344.68,418.5,345.98z M432.18,346.96c-1.12,1.11-2.52,1.51-4.07,1.33c-0.6-0.07-1.18-0.26-1.74-0.52
			c-1.8-0.84-2.13-3.25-0.47-4.49c0.98-0.73,1.7-0.98,3.24-0.95c0.55,0,1.16-0.01,1.74,0.23c0.43,0.17,0.82,0.39,1.17,0.69
			C433.22,344.3,433.3,345.85,432.18,346.96z M459.81,340.28c-0.91,1.91-2.44,2.96-4.51,3.26c-0.23,0.03-0.46,0.03-0.68,0.05
			c-0.78,0.04-1.52-0.1-2.17-0.57c-1.14-0.81-1.59-2.36-0.97-3.68c0.95-2.04,2.52-3.31,4.83-3.52c0.42-0.04,0.83,0.03,1.25,0.08
			C459.56,336.18,460.67,338.45,459.81,340.28z M467.42,336.27c-0.48,0.14-0.97,0.2-1.46,0.17c-1.66-0.1-2.74-1.19-2.82-2.85
			c-0.04-0.81,0.1-1.59,0.48-2.32c0.83-1.59,2.03-2.73,3.82-3.16c0.45-0.11,0.91-0.11,1.36-0.04c1.45,0.22,2.3,1.14,2.42,2.6
			c0.01,0.13,0,0.26,0,0.26C471.35,333.13,469.7,335.59,467.42,336.27z M478.43,312.42c-1.17,2.05-2.29,4.13-3.23,6.3
			c-1.28,2.94-2.35,5.95-3.16,9.05c-0.09,0.33-0.14,0.67-0.21,1.01c-0.33-0.01-0.5-0.29-0.73-0.47c-1.67-1.24-3.42-1.35-5.27-0.43
			c-0.97,0.49-1.78,1.18-2.44,2.04c-0.93,1.21-1.23,2.61-1.1,4.1c0.09,0.99,0.59,1.8,1.35,2.44c0.34,0.29,0.7,0.55,1.11,0.88
			c-1.17,0.76-2.34,1.38-3.57,2.06c-0.1-0.41-0.19-0.76-0.28-1.11c-0.52-2.2-2.38-3.58-4.65-3.35c-2.4,0.25-4.2,1.51-5.45,3.54
			c-0.61,1-0.67,2.09-0.28,3.19c0.1,0.29,0.23,0.57,0.32,0.86c0.11,0.35-0.02,0.61-0.38,0.7c-0.44,0.12-0.89,0.19-1.34,0.3
			c-0.18,0.04-0.36,0.13-0.54,0.18c-0.7,0.19-1,0.04-1.22-0.63c-0.07-0.22-0.12-0.44-0.19-0.66c-0.3-1.01-0.94-1.73-1.88-2.19
			c-1.94-0.96-5.07-1.03-7.38,1.05c-0.23,0.2-0.44,0.43-0.3,0.79c0.08,0.21,0.28,0.32,0.43,0.21c0.24-0.18,0.48-0.38,0.71-0.57
			c0.6-0.48,1.27-0.84,2-1.08c1.51-0.48,2.95-0.24,4.3,0.51c1.43,0.79,1.87,2.21,1.23,3.72c-0.33,0.76-0.85,1.35-1.54,1.8
			c-1.33,0.86-2.8,1.19-4.37,0.99c-1.11-0.14-2-0.7-2.64-1.63c-0.4-0.59-0.54-1.25-0.5-1.96c0.02-0.34,0.08-0.68-0.11-1
			c-0.07-0.12-0.27-0.13-0.38-0.04c-0.16,0.14-0.21,0.31-0.21,0.51c0.01,0.3,0.06,0.61,0.05,0.91c-0.02,0.37-0.27,0.65-0.63,0.72
			c-0.45,0.09-0.91,0.1-1.36,0.01c-0.36-0.07-0.62-0.3-0.78-0.61c-0.12-0.23-0.2-0.49-0.3-0.74c-0.36-0.89-0.97-1.54-1.88-1.89
			c-1.43-0.55-2.9-0.64-4.38-0.31c-1.21,0.27-2.13,0.99-2.79,2.04c-0.04,0.06-0.08,0.13-0.12,0.2c-0.62,1.01-0.62,1.02-1.72,0.81
			c-0.57-0.1-1.13-0.17-1.7-0.16c-0.39,0-0.64-0.2-0.77-0.56c-0.13-0.36-0.25-0.72-0.41-1.06c-0.36-0.79-1.04-1.29-1.69-1.82
			c-0.39-0.14-0.78-0.32-1.18-0.41c-2.33-0.51-4.45-0.11-6,1.79c-0.97,1.18-3.01,1.25-4.15,0.45c-0.25-0.18-0.5-0.38-0.62-0.66
			c-0.35-0.79-0.93-1.38-1.56-1.94c-0.05-0.05-0.08-0.13-0.11-0.19c0.09-0.24,0.3-0.18,0.48-0.19c2.21-0.12,4.42-0.04,6.62,0.03
			c2.38,0.07,4.76,0.18,7.14,0.29c0.28-0.02,0.56-0.01,0.83,0.11c0,0,0,0,0,0c0,0,0,0,0,0s0,0,0,0c0.95-0.01,1.9-0.03,2.85-0.02
			c4.77,0.08,9.53-0.11,14.28-0.57c1.4-0.14,2.82-0.18,4.2-0.5c0.33-0.08,0.67-0.15,0.99-0.26c0.51-0.17,1-0.34,1.54-0.1
			c0.28,0.12,0.6,0.07,0.9-0.02c0.25-0.08,0.52-0.14,0.76-0.25c0.99-0.48,1.95-1.03,3.08-1.14c0.18-0.02,0.37-0.11,0.53-0.21
			c0.63-0.4,1.31-0.58,2.05-0.58c0.48,0,0.9-0.22,1.19-0.59c0.26-0.32,0.56-0.5,0.94-0.6c0.15-0.04,0.28-0.11,0.42-0.17
			c0.72-0.33,1.44-0.67,2.18-0.96c0.99-0.39,1.93-0.92,2.37-2.02c0.13-0.32,0.45-0.51,0.73-0.7c2.04-1.39,3.67-3.2,5.19-5.12
			c0.22-0.27,0.38-0.54,0.75-0.64c0.3-0.08,0.48-0.31,0.56-0.65c0.23-0.96,0.88-1.67,1.52-2.38c0.08-0.08,0.16-0.2,0.26-0.22
			c0.64-0.16,0.9-0.58,1-1.22c0.05-0.31,0.36-0.56,0.71-0.69c0.49-0.18,0.71-0.56,0.68-1.07c-0.02-0.31,0.13-0.49,0.35-0.66
			c0.63-0.51,1.16-1.11,1.58-1.79c0.19-0.3,0.39-0.55,0.76-0.64c0.55-0.14,0.91-0.54,1.16-1.03c0.14-0.28,0.3-0.5,0.66-0.55
			c0.44-0.05,0.73-0.39,1.04-0.67c1.12-0.99,2.37-1.79,3.66-2.53c0.06-0.03,0.14-0.03,0.22-0.04
			C478.82,312.03,478.55,312.22,478.43,312.42z M495.6,250.59c-2.99,2.74-6.51,4.23-10.56,4.28c-2.83,0.04-5.5-0.72-8.01-2.03
			c-3.46-1.81-6.17-4.44-8.3-7.69c-1.03-1.56-1.91-3.21-2.72-4.89c-0.12-0.24-0.27-0.5-0.27-0.75c0-0.8-0.39-1.46-0.69-2.15
			c-0.94-2.16-1.4-4.43-1.6-6.76c-0.1-1.14-0.12-2.28-0.17-3.43c-0.02-3.58,0.48-7.07,1.77-10.42c1.2-3.1,2.89-5.88,5.31-8.18
			c2.53-2.41,5.51-3.94,8.99-4.4c3.51-0.46,6.82,0.25,9.94,1.92c2.49,1.33,4.55,3.19,6.39,5.3c3.08,3.56,5.05,7.69,6.19,12.23
			c0.31,1.22,0.57,2.45,0.73,3.7c0.01,0.11,0.03,0.23,0.06,0.34c0.63,2.25,0.42,4.54,0.23,6.82c-0.24,2.83-0.89,5.57-1.97,8.19
			C499.68,245.68,498.01,248.39,495.6,250.59z M530.32,278.9c0,0-0.33,8.27-7.94,7.94c0,0-2.93,0.35-6.02-2.03
			c-0.85-0.56-1.59-1.24-2.27-2.02c-0.68-0.78-1.28-1.61-1.85-2.47c-0.4-0.6-0.78-1.22-1.18-1.82c-0.3-0.45-0.57-0.89-0.55-1.46
			c0.01-0.44-0.22-0.79-0.5-1.12c-0.78-0.88-1.44-1.85-2.04-2.85c-1.83-2.17-4.35-4.8-7.58-7.41c0,0,9.5,2.41,19.6,1.69
			c0.66-0.08,1.33-0.17,1.99-0.28c2.18-0.35,4.34-0.84,6.47-1.43c0.25-0.07,0.51-0.16,0.77-0.19c0.13-0.02,0.25,0.01,0.35,0.06
			c1.54-0.53,3.02-1.19,4.41-2C533.96,263.52,531.15,267.98,530.32,278.9z M559.32,236.22c-1.11,2.41-2.59,4.57-4.48,6.45
			c-2.94,2.93-6.5,4.44-10.66,4.57c-2.69,0.08-5.22-0.52-7.61-1.73c-4.84-2.45-8.36-6.19-10.71-11.04
			c-1.85-3.84-3.07-7.87-3.59-12.11c-0.13-1.06-0.14-2.13-0.21-3.19c0.01-5.29,1.47-10.15,4.27-14.62c0.96-1.53,2.08-2.93,3.45-4.1
			c4.97-4.28,10.52-5.22,16.62-2.8c2.26,0.9,4.22,2.28,6,3.91c4.17,3.82,6.83,8.54,8.23,13.99c0.66,2.59,1.18,5.22,1.21,7.89
			C561.92,227.86,561.19,232.16,559.32,236.22z M666.69,255.89c1.34,0.96,2.06,2.29,2.24,3.92c0.05,0.47-0.03,0.91-0.28,1.31
			c-0.44,0.72-1.29,1.15-2.15,0.79c-0.39-0.16-0.77-0.33-1.08-0.62c-1.09-1.04-1.67-2.32-1.74-3.52c-0.01-1.06,0.14-1.75,0.87-2.15
			C665.33,255.2,666.04,255.42,666.69,255.89z M654.46,244.07c0.06-0.02,0.15-0.05,0.19-0.02c0.13,0.1,0.34,0.13,0.37,0.35
			c0,0,0,0,0,0l0,0c0.34,0,0.54,0.27,0.76,0.46c1.13,1.02,2.27,2.03,3.37,3.08c1.8,1.71,3.36,3.63,4.88,5.59
			c0.09,0.12,0.19,0.24,0.27,0.37c0.21,0.34,0.17,0.62-0.11,0.93c-0.05,0.06-0.11,0.1-0.17,0.16c-0.95,0.96-1.07,1.18-1.33,2.68
			c-0.15-0.28-0.28-0.47-0.35-0.69c-0.6-1.82-1.47-3.5-2.5-5.1c-1.11-1.73-2.16-3.49-3.23-5.25c-0.4-0.65-0.81-1.29-1.4-1.79
			c-0.11-0.09-0.17-0.24-0.26-0.36c-0.2,0-0.3-0.17-0.43-0.28C654.44,244.14,654.4,244.1,654.46,244.07z M661.19,289.28
			c1.38-0.27,2.51,0.41,2.9,1.75c0.11,0.36,0.14,0.75,0.18,0.99c-0.12,2.58-1.49,4.86-3.81,5.94c-1.74,0.81-3.81-0.3-3.78-2.53
			c0.01-1.26,0.33-2.48,1.03-3.57c0.63-0.99,1.48-1.73,2.52-2.25C660.52,289.46,660.86,289.34,661.19,289.28z M651.6,301.52
			c2.23-0.8,4.43,0.63,4.73,2.91c0.36,2.76-1.93,5.75-4.7,6.09c-1.58,0.2-3.24-0.56-3.71-2.63c-0.08-0.33-0.08-0.68-0.12-1.02
			C647.73,304.81,649.25,302.37,651.6,301.52z M636.77,316.51c0.37-1.48,1.26-2.68,2.4-3.67c1.14-0.99,2.42-1.71,3.96-1.87
			c0.38-0.04,0.76-0.04,1.14,0.01c1.68,0.21,2.82,1.43,2.95,3.12c0.01,0.14,0,0.28,0,0.25c0.03,1.07-0.18,1.88-0.57,2.62
			c-1.25,2.37-3.14,3.87-5.86,4.21c-0.04,0-0.08,0.01-0.11,0.01C637.77,321.43,636.08,319.25,636.77,316.51z M650.78,327.86
			c-1.98,0.45-3.92-0.55-4.36-2.75c-0.18-0.93-0.12-1.83,0.17-2.7c0.65-1.99,1.87-3.55,3.67-4.64c0.83-0.5,1.74-0.76,2.71-0.75
			c1.45,0.02,2.54,0.79,3.03,2.17c0.19,0.54,0.28,1.1,0.3,1.62C656.23,324.61,653.42,327.26,650.78,327.86z M660.48,316.48
			c-3.14,0.74-4.9-1.8-4.49-4.25c0.35-2.11,1.56-3.6,3.55-4.43c0.67-0.28,1.38-0.43,2.12-0.32c1.77,0.27,2.95,1.74,2.95,3.65
			C664.59,313.44,662.7,315.95,660.48,316.48z M666.54,305.6c-0.5,0.94-1.02,1.87-1.54,2.8c-0.39-0.05-0.57-0.37-0.83-0.58
			c-2.07-1.66-3.92-1.76-6.17-0.18c-1.9,1.34-2.94,3.17-2.89,5.53c0.03,1.75,0.82,3.06,2.41,3.85c0.17,0.08,0.36,0.15,0.51,0.25
			c0.13,0.09,0.19,0.24,0.12,0.4c-0.22,0.46-0.57,0.81-1.01,1.05c-0.15,0.08-0.29,0.02-0.39-0.12c-0.19-0.28-0.35-0.6-0.58-0.84
			c-1.42-1.52-3.16-2.01-5.1-1.29c-2.4,0.89-4.1,2.59-5.01,5.01c-0.49,1.33-0.4,2.7-0.14,4.06c0.08,0.45,0.24,0.88,0.34,1.33
			c0.04,0.17,0.13,0.35-0.11,0.56c-0.78-1.03-1.65-1.99-2.66-2.79c-1.01-0.8-2.05-1.55-3.08-2.32c0.24-0.32,0.57-0.28,0.86-0.32
			c1.93-0.31,3.48-1.3,4.81-2.67c1.36-1.41,2.01-3.11,2.03-5.07c0.01-1.41-0.58-2.49-1.71-3.3c-0.53-0.38-1.12-0.65-1.7-0.9
			c-0.06-0.32,0.19-0.41,0.35-0.54c0.56-0.45,1.14-0.88,1.69-1.3c0.34,0.14,0.39,0.42,0.54,0.63c0.24,0.35,0.46,0.71,0.71,1.04
			c0.78,1,1.79,1.43,3.07,1.46c3.42,0.08,6.51-3.41,6.16-6.97c-0.12-1.16-0.65-2.1-1.57-2.82c-0.33-0.26-0.69-0.47-1.05-0.69
			c-0.5-0.32-0.52-0.33-0.21-0.76c0.59-0.84,1.19-1.66,1.81-2.51c0.28,0.24,0.5,0.45,0.74,0.64c1.14,0.93,2.38,1.13,3.74,0.55
			c1.61-0.68,2.83-1.78,3.58-3.37c0.58-1.23,0.85-2.52,0.81-3.88c-0.03-1-0.46-1.76-1.32-2.26c-0.42-0.25-0.88-0.44-1.34-0.64
			c-0.24-0.11-0.51-0.16-0.76-0.25c-0.38-0.15-0.53-0.41-0.4-0.81c0.38-1.2,0.78-2.39,1.17-3.58c0.08-0.23,0.27-0.26,0.42-0.07
			c0.14,0.18,0.25,0.38,0.4,0.56c0.22,0.26,0.44,0.53,0.69,0.76c1.06,0.92,2.37,0.9,3.42-0.02c0.56-0.49,0.94-1.1,1.25-1.76
			c0.76-1.61,0.89-3.29,0.5-5.02c-0.05-0.22-0.12-0.44-0.21-0.65c-0.69-1.73-1.91-2.28-3.64-1.94c-0.37,0.07-0.72,0.21-1.07,0.32
			c-0.22-0.39-0.15-0.79-0.08-1.15c0.1-0.52,0.23-1.03,0.27-1.57c0.02-0.18,0.18-0.24,0.34-0.17c0.21,0.09,0.39,0.23,0.6,0.33
			c0.38,0.17,0.76,0.36,1.16,0.47c1.02,0.28,1.88-0.03,2.56-0.83c0.02-0.03,0.05-0.06,0.07-0.09c1.16-1.63,2.08-4.91,0.47-7.46
			c-0.44-0.69-0.97-1.27-1.75-1.59c-0.84-0.34-1.64-0.27-2.39,0.24c-0.13,0.09-0.24,0.2-0.37,0.27c-0.28,0.16-0.43,0.69-0.78,0.5
			c-0.27-0.14-0.12-0.62-0.18-0.95c-0.21-1.2-0.41-2.4-0.62-3.61c0.28-0.04,0.32,0.23,0.46,0.37c0.29,0.3,0.55,0.64,0.87,0.91
			c1.01,0.84,2.14,1.13,3.41,0.7c0.18-0.06,0.36-0.13,0.54-0.19c0.25-0.08,0.45,0,0.58,0.22c0.08,0.13,0.15,0.27,0.2,0.41
			c0.97,2.49,1.82,5.01,2.44,7.61c0.16,0.66,0.02,1.11-0.48,1.51c-2.2,1.76-2.43,5.1-1.52,7.23c0.48,1.12,1.15,2.06,2.3,2.58
			c0.06,0.03,0.11,0.1,0.18,0.17c-0.32,0.13-0.63,0.25-0.92,0.39c-0.84,0.4-1.58,0.95-2.09,1.74c-1.04,1.61-1.41,3.36-1,5.24
			c0.26,1.18,0.99,2.04,1.98,2.7c0.9,0.6,0.97,0.81,0.66,1.76c-0.13,0.41-0.4,0.63-0.82,0.68c-0.45,0.05-0.91,0.08-1.36,0.16
			c-3.95,0.72-5.43,4.56-4.87,7.13c0.24,1.07,0.76,1.89,1.72,2.44c0.17,0.09,0.34,0.17,0.49,0.28
			C666.68,304.89,666.76,305.17,666.54,305.6z M663.93,278.01c0.2-0.36,0.48-0.69,0.78-0.97c0.99-0.92,2.03-0.82,2.83,0.25
			c0.39,0.52,0.69,1.09,0.77,1.76c0.06,0.49,0.1,0.98,0.15,1.47c0,1.14-0.28,2.19-0.92,3.13c-0.21,0.31-0.46,0.61-0.75,0.85
			c-0.85,0.73-1.87,0.66-2.64-0.17c-0.42-0.45-0.7-1-0.85-1.59C662.88,281.09,663.08,279.49,663.93,278.01z M664.26,268.88
			c0.01-1.1,0.29-2.11,0.95-3c0.2-0.27,0.44-0.53,0.71-0.74c0.63-0.49,1.35-0.48,2.01-0.01c0.57,0.41,0.98,0.97,1.22,1.62
			c0.71,1.89,0.56,3.73-0.41,5.51c-0.77,1.43-2.7,1.45-3.58,0.11C664.66,271.63,664.25,270.08,664.26,268.88z M672.21,298.77
			c-0.13,2.08-1.07,3.68-2.89,4.75c-0.5,0.29-1.04,0.44-1.63,0.48c-1.39,0.1-2.53-0.85-2.85-2.15c-0.65-2.67,1.48-5.92,4.19-6.44
			c1.16-0.22,2.11,0.22,2.68,1.26C672.08,297.32,672.22,298.02,672.21,298.77z M674.63,285.67c0.03,0.3,0.01,0.61,0.01,0.91
			c0.03,0.84-0.1,1.66-0.39,2.45c-0.32,0.88-0.87,1.6-1.62,2.15c-0.93,0.69-1.88,0.55-2.59-0.37c-0.56-0.72-0.76-1.57-0.79-2.45
			c-0.05-1.36,0.27-2.63,1.03-3.78c0.34-0.52,0.77-0.94,1.32-1.23c0.75-0.38,1.36-0.31,2,0.22
			C674.24,284.13,674.54,284.85,674.63,285.67z M674.42,280.44c-0.96,1.07-1.81,1.08-2.8,0.03c-0.97-1.03-1.29-2.32-1.3-3.68
			c-0.01-0.8,0.21-1.58,0.5-2.34c0.23-0.62,0.62-1.14,1.15-1.54c0.66-0.5,1.44-0.5,2.12,0c0.44,0.32,0.76,0.74,1.02,1.21
			c0.45,0.82,0.63,1.71,0.68,2.6C675.7,278.13,675.35,279.39,674.42,280.44z"/>
		<linearGradient id="SVGID_68_" gradientUnits="userSpaceOnUse" x1="519.9768" y1="266.403" x2="529.5538" y2="266.403">
			<stop  offset="0" style="stop-color:#29ABE2"/>
			<stop  offset="1" style="stop-color:#0071BC"/>
		</linearGradient>
		<path class="st68" d="M529.2,265.45c-0.26,0.03-0.52,0.12-0.77,0.19c-2.13,0.6-4.28,1.09-6.47,1.43c-0.66,0.11-1.33,0.2-1.99,0.28
			c3.23-0.23,6.52-0.78,9.58-1.84C529.45,265.46,529.33,265.44,529.2,265.45z"/>
		<linearGradient id="SVGID_69_" gradientUnits="userSpaceOnUse" x1="507.9612" y1="278.9451" x2="516.3591" y2="278.9451">
			<stop  offset="0" style="stop-color:#29ABE2"/>
			<stop  offset="1" style="stop-color:#0071BC"/>
		</linearGradient>
		<path class="st69" d="M511.63,278.08c0,0-1.2-2.07-3.67-5c0.6,1,1.26,1.97,2.04,2.85c0.29,0.32,0.52,0.68,0.5,1.12
			c-0.02,0.57,0.25,1.02,0.55,1.46c0.4,0.6,0.79,1.22,1.18,1.82c0.57,0.86,1.17,1.7,1.85,2.47c0.68,0.77,1.42,1.46,2.27,2.02
			C514.69,283.53,512.96,281.44,511.63,278.08z"/>
		<linearGradient id="SVGID_70_" gradientUnits="userSpaceOnUse" x1="470.3364" y1="229.8979" x2="498.557" y2="229.8979">
			<stop  offset="0" style="stop-color:#29ABE2"/>
			<stop  offset="1" style="stop-color:#0071BC"/>
		</linearGradient>
		<path class="st70" d="M498.23,227.53c-0.67-4.14-2.35-7.78-5.19-10.87c-1.24-1.36-2.62-2.55-4.27-3.4
			c-2.42-1.25-4.97-1.74-7.64-1.17c-3.28,0.7-5.86,2.51-7.68,5.32c-2.75,4.25-3.58,8.94-2.89,13.9c0.61,4.4,2.39,8.33,5.23,11.75
			c1.51,1.82,3.38,3.18,5.59,4.05c4.42,1.73,9.32,0.82,12.62-2.91c0.15-0.17,0.3-0.34,0.46-0.51c1.64-1.69,2.56-3.79,3.25-5.97
			c0.63-2,0.9-4.09,0.82-6.21C498.47,230.19,498.44,228.86,498.23,227.53z"/>
		<linearGradient id="SVGID_71_" gradientUnits="userSpaceOnUse" x1="529.2742" y1="222.2457" x2="557.4816" y2="222.2457">
			<stop  offset="0" style="stop-color:#29ABE2"/>
			<stop  offset="1" style="stop-color:#0071BC"/>
		</linearGradient>
		<path class="st71" d="M548.24,205.94c-4.32-2.65-9.56-2.25-13.41,1.01c-1.2,1.02-2.19,2.23-2.96,3.61
			c-2.16,3.89-2.93,8.07-2.47,12.47c0.45,4.22,2.04,8.02,4.55,11.44c0.96,1.3,2.1,2.41,3.39,3.38c2.01,1.5,4.26,2.37,6.77,2.45
			c3.25,0.1,6.03-1.05,8.41-3.24c1.96-1.81,3.03-4.17,4.04-6.56c0.04-0.1,0.05-0.22,0.07-0.33c0.51-2.2,0.82-4.42,0.84-6.76
			c0.01-4.47-1.18-8.65-3.91-12.34C552.09,209.05,550.38,207.26,548.24,205.94z"/>
		<linearGradient id="SVGID_72_" gradientUnits="userSpaceOnUse" x1="383.465" y1="300.997" x2="387.7478" y2="300.997">
			<stop  offset="0" style="stop-color:#29ABE2"/>
			<stop  offset="1" style="stop-color:#0071BC"/>
		</linearGradient>
		<path class="st72" d="M386.3,303.12c0.88,0.09,1.47-0.45,1.45-1.33c-0.01-1.26-1.82-3.09-3.15-2.92c-0.04,0-0.08,0.01-0.11,0.01
			c-0.56,0.06-0.92,0.38-0.99,0.93c-0.04,0.3-0.03,0.61,0.04,0.9C383.79,301.82,385.17,303.01,386.3,303.12z M384.83,299.76
			c0.15,0.01,0.31,0.01,0.44,0.08c0.67,0.32,1.17,0.83,1.45,1.52c0.04,0.1,0.04,0.22,0.04,0.27c0.01,0.36-0.21,0.56-0.51,0.53
			c-0.96-0.1-1.84-1.03-1.87-1.99C384.38,299.95,384.59,299.75,384.83,299.76z"/>
		<linearGradient id="SVGID_73_" gradientUnits="userSpaceOnUse" x1="384.3898" y1="300.9636" x2="386.7729" y2="300.9636">
			<stop  offset="0" style="stop-color:#29ABE2"/>
			<stop  offset="1" style="stop-color:#0071BC"/>
		</linearGradient>
		<path class="st73" d="M386.26,302.16c0.29,0.03,0.52-0.17,0.51-0.53c-0.01-0.04,0-0.16-0.04-0.27c-0.28-0.7-0.78-1.2-1.45-1.52
			c-0.13-0.06-0.29-0.07-0.44-0.08c-0.24-0.01-0.45,0.19-0.44,0.41C384.42,301.13,385.3,302.07,386.26,302.16z"/>
	</g>
	<path class="st74" d="M436.62,344.43c0,0,1.12-3.13,2.41-3.38"/>
</g>
</svg>
